<svg width="50" height="30" viewBox="0 0 50 30" fill="none" xmlns="http://www.w3.org/2000/svg">
<rect width="50" height="30" rx="4" fill="white"/>
<path d="M20.6364 10.1529H18.0909L15.5455 17.062L13.57 10.8064C13.5 10.5 13.3281 10.1529 12.8419 10.1529H9L11.5455 11.2438L14.0909 19.9711H16.6364L20.6364 10.1529Z" fill="#3D4656"/>
<path d="M23.9232 10.1529H21.3968L19.5786 19.9711L22.1879 19.9737L23.9232 10.1529Z" fill="#3D4656"/>
<path d="M31.2112 10.6033L30.8642 12.3385C29.476 11.6444 28.1655 11.836 27.7407 12.6856C27.3642 13.4385 28.3725 13.9603 28.7647 14.1528C30.2193 14.7589 31.2278 15.3625 30.8642 17.5443C30.1369 20.0897 27.4574 20.3966 24.2702 19.6266V17.1973C25.6584 18.2384 28.0878 18.2384 28.4348 17.1973C28.4348 15.8091 25.3279 15.9252 24.9643 13.3797C24.9643 10.2562 28.7819 9.21509 31.2112 10.6033Z" fill="#3D4656"/>
<path d="M38.4545 10.1529H36.2727L31.5455 19.9711H34.0909L34.8182 18.5165H38.0909L38.4545 19.9711H41L38.4545 10.1529Z" fill="#3D4656"/>
<path d="M35.5454 16.6984L37 13.062L37.7272 16.6984H35.5454Z" fill="white"/>
</svg>
