<svg width="122" height="36" viewBox="0 0 122 36" fill="none" xmlns="http://www.w3.org/2000/svg">
    <path d="M4.51852 0.5H117.481C119.703 0.5 121.5 2.2928 121.5 4.5V31.5C121.5 33.7072 119.703 35.5 117.481 35.5H4.51852C2.29721 35.5 0.5 33.7072 0.5 31.5V4.5C0.5 2.29279 2.29721 0.5 4.51852 0.5Z" stroke="white"/>
    <path d="M29.3173 18.4223C29.327 17.6711 29.5265 16.9346 29.8973 16.2812C30.2681 15.6279 30.7982 15.0789 31.4382 14.6855C31.0316 14.1048 30.4953 13.627 29.8717 13.2899C29.2482 12.9528 28.5546 12.7657 27.8462 12.7436C26.3348 12.5849 24.8697 13.6479 24.0996 13.6479C23.3145 13.6479 22.1288 12.7593 20.8519 12.7856C20.026 12.8123 19.2211 13.0524 18.5156 13.4827C17.8101 13.9129 17.2281 14.5186 16.8263 15.2407C15.0857 18.2542 16.384 22.6832 18.0514 25.1191C18.8856 26.3119 19.8605 27.6443 21.1362 27.5971C22.3846 27.5453 22.8508 26.801 24.3577 26.801C25.8506 26.801 26.288 27.5971 27.5896 27.567C28.9291 27.5453 29.7731 26.3689 30.578 25.1648C31.1774 24.3149 31.6386 23.3755 31.9446 22.3815C31.1664 22.0524 30.5022 21.5014 30.035 20.7974C29.5678 20.0933 29.3182 19.2673 29.3173 18.4223Z" fill="white"/>
    <path d="M26.8589 11.1415C27.5893 10.2648 27.9491 9.13781 27.862 8C26.7461 8.1172 25.7154 8.6505 24.9752 9.49364C24.6132 9.90554 24.336 10.3847 24.1594 10.9038C23.9828 11.4229 23.9102 11.9717 23.9458 12.5189C24.5039 12.5246 25.0561 12.4037 25.5607 12.1651C26.0653 11.9265 26.5092 11.5765 26.8589 11.1415Z" fill="white"/>
    <path d="M45.0982 19.3416H40.8382L39.8151 22.3624H38.0107L42.0458 11.1863H43.9205L47.9555 22.3624H46.1204L45.0982 19.3416ZM41.2794 17.9477H44.6562L42.9915 13.0452H42.9449L41.2794 17.9477Z" fill="white"/>
    <path d="M56.6699 18.2888C56.6699 20.8209 55.3146 22.4478 53.2694 22.4478C52.7513 22.4749 52.2361 22.3555 51.7827 22.1034C51.3292 21.8513 50.956 21.4766 50.7056 21.0222H50.6669V25.0581H48.9944V14.2142H50.6134V15.5695H50.6441C50.906 15.1173 51.2855 14.7445 51.7424 14.4908C52.1993 14.2372 52.7163 14.1121 53.2386 14.1289C55.3067 14.129 56.6699 15.7637 56.6699 18.2888ZM54.9507 18.2888C54.9507 16.6391 54.0982 15.5545 52.7974 15.5545C51.5195 15.5545 50.6599 16.6619 50.6599 18.2888C50.6599 19.9306 51.5195 21.0301 52.7974 21.0301C54.0982 21.0301 54.9507 19.9534 54.9507 18.2888Z" fill="white"/>
    <path d="M65.6381 18.2888C65.6381 20.8209 64.2829 22.4478 62.2377 22.4478C61.7196 22.4749 61.2043 22.3555 60.7509 22.1034C60.2975 21.8513 59.9243 21.4766 59.6739 21.0222H59.6352V25.0581H57.9626V14.2142H59.5816V15.5695H59.6123C59.8742 15.1172 60.2538 14.7445 60.7106 14.4908C61.1675 14.2372 61.6846 14.1121 62.2069 14.1289C64.275 14.1289 65.6381 15.7637 65.6381 18.2888ZM63.919 18.2888C63.919 16.6391 63.0665 15.5545 61.7657 15.5545C60.4878 15.5545 59.6282 16.6619 59.6282 18.2888C59.6282 19.9306 60.4878 21.0301 61.7657 21.0301C63.0665 21.0301 63.919 19.9534 63.919 18.2888H63.919Z" fill="white"/>
    <path d="M71.5656 19.2486C71.6896 20.3569 72.7662 21.0845 74.2375 21.0845C75.6473 21.0845 76.6615 20.3568 76.6615 19.3575C76.6615 18.49 76.0498 17.9706 74.6014 17.6146L73.153 17.2657C71.1007 16.77 70.148 15.8102 70.148 14.2528C70.148 12.3245 71.8284 11 74.2147 11C76.5763 11 78.1952 12.3245 78.2497 14.2528H76.5613C76.4602 13.1375 75.5383 12.4643 74.1909 12.4643C72.8436 12.4643 71.9216 13.1454 71.9216 14.1368C71.9216 14.9269 72.5105 15.3919 73.951 15.7478L75.1823 16.0502C77.4754 16.5924 78.4281 17.5135 78.4281 19.1483C78.4281 21.2392 76.7626 22.5488 74.1136 22.5488C71.635 22.5488 69.9616 21.27 69.8535 19.2485L71.5656 19.2486Z" fill="white"/>
    <path d="M82.0376 12.2859V14.2142H83.5871V15.5387H82.0376V20.0308C82.0376 20.7286 82.3478 21.0538 83.029 21.0538C83.2129 21.0506 83.3966 21.0377 83.5792 21.0151V22.3317C83.2729 22.3889 82.9617 22.4149 82.6502 22.4091C81.0005 22.4091 80.3571 21.7894 80.3571 20.2092V15.5387H79.1724V14.2142H80.3571V12.2859H82.0376Z" fill="white"/>
    <path d="M84.4846 18.2888C84.4846 15.725 85.9946 14.114 88.3492 14.114C90.7116 14.114 92.2146 15.725 92.2146 18.2888C92.2146 20.8596 90.7196 22.4636 88.3492 22.4636C85.9796 22.4636 84.4846 20.8596 84.4846 18.2888ZM90.5104 18.2888C90.5104 16.5301 89.7044 15.4921 88.3492 15.4921C86.9939 15.4921 86.1888 16.538 86.1888 18.2888C86.1888 20.0545 86.9939 21.0846 88.3492 21.0846C89.7044 21.0846 90.5103 20.0545 90.5103 18.2888H90.5104Z" fill="white"/>
    <path d="M93.5935 14.2141H95.1887V15.601H95.2274C95.3353 15.1679 95.5891 14.7851 95.946 14.517C96.303 14.2489 96.7413 14.1118 97.1874 14.1289C97.3801 14.1282 97.5723 14.1491 97.7604 14.1913V15.7557C97.5171 15.6814 97.2633 15.6472 97.0089 15.6546C96.7659 15.6448 96.5237 15.6876 96.2989 15.7802C96.074 15.8728 95.8718 16.013 95.7063 16.1911C95.5407 16.3692 95.4156 16.581 95.3396 16.812C95.2636 17.043 95.2385 17.2877 95.2661 17.5293V22.3624H93.5935L93.5935 14.2141Z" fill="white"/>
    <path d="M105.472 19.9693C105.247 21.4485 103.806 22.4636 101.963 22.4636C99.5929 22.4636 98.1216 20.8754 98.1216 18.3275C98.1216 15.7716 99.6008 14.114 101.893 14.114C104.147 14.114 105.565 15.6626 105.565 18.1332V18.7063H99.81V18.8074C99.7834 19.1072 99.8209 19.4093 99.9201 19.6936C100.019 19.9778 100.178 20.2377 100.385 20.456C100.592 20.6743 100.844 20.846 101.123 20.9597C101.401 21.0734 101.701 21.1264 102.002 21.1154C102.397 21.1524 102.794 21.0608 103.133 20.8543C103.472 20.6479 103.735 20.3374 103.884 19.9693L105.472 19.9693ZM99.8179 17.5373H103.892C103.907 17.2677 103.866 16.9979 103.772 16.7448C103.677 16.4917 103.532 16.2608 103.344 16.0666C103.156 15.8724 102.931 15.7191 102.681 15.6163C102.431 15.5135 102.163 15.4635 101.893 15.4693C101.621 15.4677 101.351 15.52 101.099 15.6233C100.847 15.7265 100.617 15.8787 100.425 16.071C100.232 16.2632 100.079 16.4918 99.9745 16.7435C99.8704 16.9952 99.8172 17.265 99.8179 17.5373V17.5373Z" fill="white"/>
</svg>