<svg width="90" height="20" viewBox="0 0 90 20" fill="none" xmlns="http://www.w3.org/2000/svg">
<path d="M13.3175 10.4223C13.3272 9.67111 13.5267 8.93457 13.8976 8.28122C14.2684 7.62786 14.7985 7.07892 15.4384 6.68546C15.0319 6.10482 14.4955 5.62697 13.872 5.28988C13.2484 4.95278 12.5549 4.76572 11.8464 4.74356C10.3351 4.58492 8.86994 5.6479 8.09981 5.6479C7.31477 5.6479 6.12902 4.75931 4.85217 4.78558C4.02626 4.81226 3.22135 5.05243 2.51586 5.48268C1.81038 5.91293 1.22837 6.51859 0.826551 7.24065C-0.914044 10.2542 0.384283 14.6832 2.05163 17.1191C2.88583 18.3119 3.86078 19.6443 5.13648 19.5971C6.38483 19.5453 6.85107 18.801 8.35793 18.801C9.85081 18.801 10.2882 19.5971 11.5898 19.567C12.9294 19.5453 13.7733 18.3689 14.5783 17.1648C15.1776 16.3149 15.6389 15.3755 15.9448 14.3815C15.1666 14.0524 14.5025 13.5014 14.0353 12.7974C13.5681 12.0933 13.3184 11.2673 13.3175 10.4223Z" fill="white"/>
<path d="M10.8591 3.14155C11.5895 2.26476 11.9493 1.13781 11.8622 0C10.7464 0.117198 9.71564 0.650499 8.9754 1.49364C8.61347 1.90554 8.33628 2.38473 8.15966 2.90382C7.98304 3.42291 7.91046 3.97173 7.94606 4.51889C8.50419 4.52463 9.05634 4.40366 9.56093 4.16508C10.0655 3.92651 10.5094 3.57654 10.8591 3.14155Z" fill="white"/>
<path d="M29.0982 11.3417H24.8382L23.8151 14.3625H22.0107L26.0458 3.18631H27.9205L31.9555 14.3625H30.1204L29.0982 11.3417ZM25.2794 9.94774H28.6562L26.9915 5.04521H26.9449L25.2794 9.94774Z" fill="white"/>
<path d="M40.6699 10.2888C40.6699 12.8209 39.3146 14.4478 37.2694 14.4478C36.7513 14.4749 36.2361 14.3555 35.7827 14.1034C35.3292 13.8513 34.956 13.4766 34.7056 13.0222H34.6669V17.0581H32.9944V6.2142H34.6134V7.56947H34.6441C34.906 7.11725 35.2855 6.74448 35.7424 6.49082C36.1993 6.23716 36.7163 6.1121 37.2386 6.12894C39.3067 6.12895 40.6699 7.76371 40.6699 10.2888ZM38.9507 10.2888C38.9507 8.63911 38.0982 7.55453 36.7974 7.55453C35.5195 7.55453 34.6599 8.66195 34.6599 10.2888C34.6599 11.9306 35.5195 13.0301 36.7974 13.0301C38.0982 13.0301 38.9507 11.9534 38.9507 10.2888Z" fill="white"/>
<path d="M49.6381 10.2888C49.6381 12.8209 48.2829 14.4478 46.2377 14.4478C45.7196 14.4749 45.2043 14.3555 44.7509 14.1034C44.2975 13.8513 43.9243 13.4766 43.6739 13.0222H43.6352V17.0581H41.9626V6.21419H43.5816V7.56946H43.6123C43.8742 7.11724 44.2538 6.74448 44.7106 6.49082C45.1675 6.23716 45.6846 6.1121 46.2069 6.12894C48.275 6.12894 49.6381 7.7637 49.6381 10.2888ZM47.919 10.2888C47.919 8.6391 47.0665 7.55452 45.7657 7.55452C44.4878 7.55452 43.6282 8.66194 43.6282 10.2888C43.6282 11.9306 44.4878 13.0301 45.7657 13.0301C47.0665 13.0301 47.919 11.9534 47.919 10.2888H47.919Z" fill="white"/>
<path d="M55.5656 11.2485C55.6896 12.3568 56.7662 13.0845 58.2375 13.0845C59.6473 13.0845 60.6615 12.3568 60.6615 11.3575C60.6615 10.49 60.0498 9.97057 58.6014 9.6146L57.153 9.26568C55.1007 8.76998 54.148 7.81021 54.148 6.25279C54.148 4.32448 55.8284 2.99997 58.2147 2.99997C60.5763 2.99997 62.1952 4.32448 62.2497 6.25279H60.5613C60.4602 5.13746 59.5383 4.46423 58.1909 4.46423C56.8436 4.46423 55.9216 5.14538 55.9216 6.13678C55.9216 6.92692 56.5105 7.39186 57.951 7.74778L59.1823 8.05012C61.4754 8.59241 62.4281 9.51352 62.4281 11.1483C62.4281 13.2392 60.7626 14.5487 58.1136 14.5487C55.635 14.5487 53.9616 13.2699 53.8535 11.2484L55.5656 11.2485Z" fill="white"/>
<path d="M66.0376 4.2858V6.21411H67.5871V7.53862H66.0376V12.0307C66.0376 12.7285 66.3478 13.0537 67.029 13.0537C67.2129 13.0505 67.3966 13.0376 67.5792 13.015V14.3316C67.2729 14.3889 66.9617 14.4148 66.6502 14.409C65.0005 14.409 64.3571 13.7894 64.3571 12.2091V7.53862H63.1724V6.21411H64.3571V4.2858H66.0376Z" fill="white"/>
<path d="M68.4846 10.2887C68.4846 7.72495 69.9946 6.11392 72.3492 6.11392C74.7116 6.11392 76.2146 7.72492 76.2146 10.2887C76.2146 12.8595 74.7196 14.4635 72.3492 14.4635C69.9796 14.4635 68.4846 12.8595 68.4846 10.2887ZM74.5104 10.2887C74.5104 8.53003 73.7044 7.49204 72.3492 7.49204C70.9939 7.49204 70.1888 8.53794 70.1888 10.2887C70.1888 12.0544 70.9939 13.0845 72.3492 13.0845C73.7044 13.0845 74.5103 12.0544 74.5103 10.2887H74.5104Z" fill="white"/>
<path d="M77.5935 6.21412H79.1887V7.60102H79.2274C79.3353 7.16786 79.5891 6.78507 79.946 6.51697C80.303 6.24887 80.7413 6.11182 81.1874 6.12886C81.3801 6.12818 81.5723 6.14912 81.7604 6.19126V7.75571C81.5171 7.68136 81.2633 7.64722 81.0089 7.65464C80.7659 7.64478 80.5237 7.68763 80.2989 7.78022C80.074 7.87282 79.8718 8.01298 79.7063 8.19108C79.5407 8.36918 79.4156 8.581 79.3396 8.81201C79.2636 9.04301 79.2385 9.28772 79.2661 9.52933V14.3624H77.5935L77.5935 6.21412Z" fill="white"/>
<path d="M89.4719 11.9692C89.2469 13.4484 87.8063 14.4635 85.9633 14.4635C83.5929 14.4635 82.1216 12.8753 82.1216 10.3274C82.1216 7.77154 83.6008 6.11392 85.893 6.11392C88.1473 6.11392 89.565 7.66255 89.565 10.1331V10.7062H83.81V10.8073C83.7834 11.1071 83.8209 11.4092 83.9201 11.6935C84.0193 11.9778 84.1778 12.2377 84.3851 12.4559C84.5924 12.6742 84.8438 12.8459 85.1226 12.9596C85.4013 13.0733 85.7011 13.1263 86.0019 13.1153C86.3972 13.1523 86.7938 13.0608 87.1329 12.8543C87.4719 12.6478 87.7352 12.3373 87.8837 11.9692L89.4719 11.9692ZM83.8179 9.53725H87.8916C87.9066 9.26761 87.8657 8.99779 87.7715 8.7447C87.6773 8.49161 87.5318 8.26073 87.3441 8.06654C87.1565 7.87235 86.9307 7.71905 86.6809 7.61625C86.4312 7.51346 86.1629 7.46339 85.893 7.46919C85.6206 7.46757 85.3506 7.5199 85.0986 7.62316C84.8465 7.72643 84.6174 7.87859 84.4245 8.07086C84.2316 8.26313 84.0787 8.4917 83.9745 8.74339C83.8704 8.99507 83.8172 9.26489 83.8179 9.53726V9.53725Z" fill="white"/>
</svg>
