<?xml version="1.0" encoding="UTF-8"?>
<svg width="2600px" height="562px" viewBox="0 0 2600 562" version="1.1" xmlns="http://www.w3.org/2000/svg" xmlns:xlink="http://www.w3.org/1999/xlink">
    <!-- Generator: Sketch 41.2 (35397) - http://www.bohemiancoding.com/sketch -->
    <title>charts</title>
    <desc>Created with Sketch.</desc>
    <defs></defs>
    <g id="Page-1" stroke="none" stroke-width="1" fill="none" fill-rule="evenodd">
        <g id="Desktop-2600" transform="translate(0.000000, -158.000000)" stroke-width="2" stroke="#7BACEF">
            <g id="НАЧАЛО">
                <g id="charts" transform="translate(0.000000, 158.000000)">
                    <polygon id="Line-Pump-1" stroke-dasharray="10,8" fill="#5689DC" opacity="0.5" points="0 439 352.083333 495 742.083333 424 1112.22222 487 1484.16667 435 1856.11111 293 2226.25 228 2600 0 2600 562 0 562"></polygon>
                    <polygon id="Line-Pump-1" fill="#396DC8" opacity="0.5" points="0 479 352.083333 508 742.083333 494 1112.22222 527 1484.16667 470 1856.11111 373 2226.25 388 2600 340 2600 563 0 563"></polygon>
                    <g id="Pump-1" transform="translate(353.888889, 367.000000)" fill="#467ACF">
                        <circle id="Oval-1" cx="1504.64214" cy="5.95579844" r="5"></circle>
                        <circle id="Oval-1" cx="1878.19266" cy="20.9557984" r="5"></circle>
                        <circle id="Oval-1" cx="1132.90497" cy="103" r="5"></circle>
                        <circle id="Oval-1" cx="761.167802" cy="159.955798" r="5"></circle>
                        <circle id="Oval-1" cx="389.430633" cy="127" r="5"></circle>
                        <circle id="Oval-1" cx="5" cy="142" r="5"></circle>
                    </g>
                    <g id="Pump-1" transform="translate(353.888889, 221.000000)" fill="#467ACF">
                        <circle id="Oval-1" cx="1504.64214" cy="72.9557984" r="5"></circle>
                        <circle id="Oval-1" cx="1878.19266" cy="5.95579844" r="5"></circle>
                        <circle id="Oval-1" cx="1132.90497" cy="215" r="5"></circle>
                        <circle id="Oval-1" cx="761.167802" cy="266.955798" r="5"></circle>
                        <circle id="Oval-1" cx="389.430633" cy="203" r="5"></circle>
                        <circle id="Oval-1" cx="5" cy="274" r="5"></circle>
                    </g>
                </g>
            </g>
        </g>
    </g>
</svg>