<svg width="351" height="347" viewBox="0 0 351 347" fill="none" xmlns="http://www.w3.org/2000/svg">
<rect x="21" y="56" width="330" height="260" rx="20" fill="#F6F9FC"/>
<rect x="1" y="36" width="330" height="260" rx="10" fill="white" stroke="#577399" stroke-width="2"/>
<rect x="40" y="245" width="25" height="6" fill="#EBF1FA"/>
<rect x="274" y="231" width="38" height="6" fill="#EBF1FA"/>
<rect x="40" y="259" width="34" height="6" fill="#EBF1FA"/>
<rect x="80" y="259" width="15" height="6" fill="#EBF1FA"/>
<rect x="274" y="245" width="25" height="6" fill="#EBF1FA"/>
<g filter="url(#filter0_i)">
<path d="M1 46C1 40.4772 5.47715 36 11 36H321C326.523 36 331 40.4772 331 46V61H1V46Z" fill="#EBF1FA"/>
</g>
<path d="M1 46C1 40.4772 5.47715 36 11 36H321C326.523 36 331 40.4772 331 46V61H1V46Z" stroke="#577399" stroke-width="2"/>
<path fill-rule="evenodd" clip-rule="evenodd" d="M57 16C59.7614 16 62 13.7614 62 11C62 8.23858 59.7614 6 57 6C54.2386 6 52 8.23858 52 11C52 13.7614 54.2386 16 57 16Z" fill="#CEDDF9"/>
<path fill-rule="evenodd" clip-rule="evenodd" d="M14 324C17.866 324 21 320.866 21 317C21 313.134 17.866 310 14 310C10.134 310 7 313.134 7 317C7 320.866 10.134 324 14 324Z" fill="#CEDDF9"/>
<path d="M287 324.5V344.5" stroke="#EBF1FA" stroke-width="5" stroke-linecap="round"/>
<path d="M277 334.5H297" stroke="#EBF1FA" stroke-width="5" stroke-linecap="round"/>
<path d="M193.5 10C193.5 14.6944 189.694 18.5 185 18.5C180.306 18.5 176.5 14.6944 176.5 10C176.5 5.30558 180.306 1.5 185 1.5C189.694 1.5 193.5 5.30558 193.5 10Z" stroke="#CEDDF9" stroke-width="3"/>
<path opacity="0.3" d="M17.5 52C17.265 52 17.0363 51.977 16.8158 51.9334L16.6218 52.9143C16.0314 52.7976 15.4825 52.5653 14.9997 52.242L15.556 51.4111C15.1739 51.1553 14.8447 50.8261 14.5889 50.444L13.758 51.0003C13.4347 50.5175 13.2024 49.9686 13.0857 49.3782L14.0666 49.1842C14.023 48.9637 14 48.735 14 48.5C14 48.265 14.023 48.0363 14.0666 47.8158L13.0857 47.6218C13.2024 47.0314 13.4347 46.4825 13.758 45.9997L14.5889 46.556C14.8447 46.1739 15.1739 45.8447 15.556 45.5889L14.9997 44.758C15.4825 44.4347 16.0314 44.2024 16.6218 44.0857L16.8158 45.0666C17.0363 45.023 17.265 45 17.5 45C17.735 45 17.9637 45.023 18.1842 45.0666L18.3782 44.0857C18.9686 44.2024 19.5175 44.4347 20.0003 44.758L19.444 45.5889C19.8261 45.8447 20.1553 46.1739 20.4111 46.556L21.242 45.9997C21.5653 46.4825 21.7976 47.0314 21.9143 47.6218L20.9334 47.8158C20.977 48.0363 21 48.265 21 48.5C21 48.735 20.977 48.9637 20.9334 49.1842L21.9143 49.3782C21.7976 49.9686 21.5653 50.5175 21.242 51.0003L20.4111 50.444C20.1553 50.8261 19.8261 51.1553 19.444 51.4111L20.0003 52.242C19.5175 52.5653 18.9686 52.7976 18.3782 52.9143L18.1842 51.9334C17.9637 51.977 17.735 52 17.5 52Z" stroke="#577399" stroke-width="2" stroke-dasharray="2 2"/>
<path opacity="0.3" d="M30.5 52C30.265 52 30.0363 51.977 29.8158 51.9334L29.6218 52.9143C29.0314 52.7976 28.4825 52.5653 27.9997 52.242L28.556 51.4111C28.1739 51.1553 27.8447 50.8261 27.5889 50.444L26.758 51.0003C26.4347 50.5175 26.2024 49.9686 26.0857 49.3782L27.0666 49.1842C27.023 48.9637 27 48.735 27 48.5C27 48.265 27.023 48.0363 27.0666 47.8158L26.0857 47.6218C26.2024 47.0314 26.4347 46.4825 26.758 45.9997L27.5889 46.556C27.8447 46.1739 28.1739 45.8447 28.556 45.5889L27.9997 44.758C28.4825 44.4347 29.0314 44.2024 29.6218 44.0857L29.8158 45.0666C30.0363 45.023 30.265 45 30.5 45C30.735 45 30.9637 45.023 31.1842 45.0666L31.3782 44.0857C31.9686 44.2024 32.5175 44.4347 33.0003 44.758L32.444 45.5889C32.8261 45.8447 33.1553 46.1739 33.4111 46.556L34.242 45.9997C34.5653 46.4825 34.7976 47.0314 34.9143 47.6218L33.9334 47.8158C33.977 48.0363 34 48.265 34 48.5C34 48.735 33.977 48.9637 33.9334 49.1842L34.9143 49.3782C34.7976 49.9686 34.5653 50.5175 34.242 51.0003L33.4111 50.444C33.1553 50.8261 32.8261 51.1553 32.444 51.4111L33.0003 52.242C32.5175 52.5653 31.9686 52.7976 31.3782 52.9143L31.1842 51.9334C30.9637 51.977 30.735 52 30.5 52Z" stroke="#577399" stroke-width="2" stroke-dasharray="2 2"/>
<path opacity="0.3" d="M43.5 52C43.265 52 43.0363 51.977 42.8158 51.9334L42.6218 52.9143C42.0314 52.7976 41.4825 52.5653 40.9997 52.242L41.556 51.4111C41.1739 51.1553 40.8447 50.8261 40.5889 50.444L39.758 51.0003C39.4347 50.5175 39.2024 49.9686 39.0857 49.3782L40.0666 49.1842C40.023 48.9637 40 48.735 40 48.5C40 48.265 40.023 48.0363 40.0666 47.8158L39.0857 47.6218C39.2024 47.0314 39.4347 46.4825 39.758 45.9997L40.5889 46.556C40.8447 46.1739 41.1739 45.8447 41.556 45.5889L40.9997 44.758C41.4825 44.4347 42.0314 44.2024 42.6218 44.0857L42.8158 45.0666C43.0363 45.023 43.265 45 43.5 45C43.735 45 43.9637 45.023 44.1842 45.0666L44.3782 44.0857C44.9686 44.2024 45.5175 44.4347 46.0003 44.758L45.444 45.5889C45.8261 45.8447 46.1553 46.1739 46.4111 46.556L47.242 45.9997C47.5653 46.4825 47.7976 47.0314 47.9143 47.6218L46.9334 47.8158C46.977 48.0363 47 48.265 47 48.5C47 48.735 46.977 48.9637 46.9334 49.1842L47.9143 49.3782C47.7976 49.9686 47.5653 50.5175 47.242 51.0003L46.4111 50.444C46.1553 50.8261 45.8261 51.1553 45.444 51.4111L46.0003 52.242C45.5175 52.5653 44.9686 52.7976 44.3782 52.9143L44.1842 51.9334C43.9637 51.977 43.735 52 43.5 52Z" stroke="#577399" stroke-width="2" stroke-dasharray="2 2"/>
<rect x="21" y="81" width="61" height="6" fill="#EBF1FA"/>
<rect x="21" y="95" width="92" height="6" fill="#EBF1FA"/>
<path d="M167.5 174.5L230.5 113.5H259" stroke="#FFABCB" stroke-width="2" stroke-dasharray="4 2"/>
<path d="M166 178L85.6951 234H39.5" stroke="#EBF1FA" stroke-width="2" stroke-dasharray="4 2"/>
<path d="M273.195 233H227L177 194" stroke="#EBF1FA" stroke-width="2" stroke-dasharray="4 2"/>
<mask id="path-22-outside-1" maskUnits="userSpaceOnUse" x="87" y="98" width="159" height="158" fill="black">
<rect fill="white" x="87" y="98" width="159" height="158"/>
<path d="M166 102C184.126 102 201.638 108.564 215.298 120.478C228.958 132.392 237.841 148.85 240.304 166.807C242.767 184.765 238.644 203.006 228.697 218.159C218.75 233.311 203.652 244.349 186.197 249.23C168.741 254.11 150.107 252.505 133.744 244.709C117.38 236.914 104.393 223.456 97.1854 206.825C89.9774 190.195 89.0359 171.516 94.5352 154.245C100.034 136.974 111.602 122.279 127.099 112.877L166 177V102Z"/>
</mask>
<path d="M166 102C184.126 102 201.638 108.564 215.298 120.478C228.958 132.392 237.841 148.85 240.304 166.807C242.767 184.765 238.644 203.006 228.697 218.159C218.75 233.311 203.652 244.349 186.197 249.23C168.741 254.11 150.107 252.505 133.744 244.709C117.38 236.914 104.393 223.456 97.1854 206.825C89.9774 190.195 89.0359 171.516 94.5352 154.245C100.034 136.974 111.602 122.279 127.099 112.877L166 177V102Z" fill="#EBF1FA"/>
<path d="M166 102C184.126 102 201.638 108.564 215.298 120.478C228.958 132.392 237.841 148.85 240.304 166.807C242.767 184.765 238.644 203.006 228.697 218.159C218.75 233.311 203.652 244.349 186.197 249.23C168.741 254.11 150.107 252.505 133.744 244.709C117.38 236.914 104.393 223.456 97.1854 206.825C89.9774 190.195 89.0359 171.516 94.5352 154.245C100.034 136.974 111.602 122.279 127.099 112.877L166 177V102Z" stroke="white" stroke-width="8" stroke-linejoin="round" mask="url(#path-22-outside-1)"/>
<mask id="path-23-outside-2" maskUnits="userSpaceOnUse" x="95" y="98" width="76" height="83" fill="black">
<rect fill="white" x="95" y="98" width="76" height="83"/>
<path d="M99.3048 142.696C105.632 130.394 115.239 120.082 127.062 112.9C138.886 105.717 152.465 101.945 166.299 102.001L166 177L99.3048 142.696Z"/>
</mask>
<path d="M99.3048 142.696C105.632 130.394 115.239 120.082 127.062 112.9C138.886 105.717 152.465 101.945 166.299 102.001L166 177L99.3048 142.696Z" fill="#ABE808"/>
<path d="M99.3048 142.696C105.632 130.394 115.239 120.082 127.062 112.9C138.886 105.717 152.465 101.945 166.299 102.001L166 177L99.3048 142.696Z" stroke="white" stroke-width="8" stroke-linejoin="round" mask="url(#path-23-outside-2)"/>
<mask id="path-24-outside-3" maskUnits="userSpaceOnUse" x="162" y="98" width="83" height="83" fill="black">
<rect fill="white" x="162" y="98" width="83" height="83"/>
<path d="M241 177C241 167.151 239.06 157.398 235.291 148.299C231.522 139.199 225.997 130.931 219.033 123.967C212.069 117.003 203.801 111.478 194.701 107.709C185.602 103.94 175.849 102 166 102V177H241Z"/>
</mask>
<path d="M241 177C241 167.151 239.06 157.398 235.291 148.299C231.522 139.199 225.997 130.931 219.033 123.967C212.069 117.003 203.801 111.478 194.701 107.709C185.602 103.94 175.849 102 166 102V177H241Z" fill="#FFABCB"/>
<path d="M241 177C241 167.151 239.06 157.398 235.291 148.299C231.522 139.199 225.997 130.931 219.033 123.967C212.069 117.003 203.801 111.478 194.701 107.709C185.602 103.94 175.849 102 166 102V177H241Z" stroke="white" stroke-width="8" stroke-linejoin="round" mask="url(#path-24-outside-3)"/>
<mask id="path-25-outside-4" maskUnits="userSpaceOnUse" x="170" y="187" width="58" height="58" fill="black">
<rect fill="white" x="170" y="187" width="58" height="58"/>
<path d="M216 191.5C220.418 191.5 224.066 195.105 223.355 199.465C222.742 203.224 221.696 206.908 220.232 210.443C217.744 216.448 214.098 221.905 209.502 226.502C204.905 231.098 199.448 234.744 193.443 237.232C189.908 238.696 186.224 239.742 182.465 240.355C178.105 241.066 174.5 237.418 174.5 233V199.5C174.5 195.082 178.082 191.5 182.5 191.5H216Z"/>
</mask>
<path d="M216 191.5C220.418 191.5 224.066 195.105 223.355 199.465C222.742 203.224 221.696 206.908 220.232 210.443C217.744 216.448 214.098 221.905 209.502 226.502C204.905 231.098 199.448 234.744 193.443 237.232C189.908 238.696 186.224 239.742 182.465 240.355C178.105 241.066 174.5 237.418 174.5 233V199.5C174.5 195.082 178.082 191.5 182.5 191.5H216Z" fill="#CEDDF9"/>
<path d="M216 191.5C220.418 191.5 224.066 195.105 223.355 199.465C222.742 203.224 221.696 206.908 220.232 210.443C217.744 216.448 214.098 221.905 209.502 226.502C204.905 231.098 199.448 234.744 193.443 237.232C189.908 238.696 186.224 239.742 182.465 240.355C178.105 241.066 174.5 237.418 174.5 233V199.5C174.5 195.082 178.082 191.5 182.5 191.5H216Z" stroke="white" stroke-width="8" mask="url(#path-25-outside-4)"/>
<rect x="260" y="110" width="51" height="66" rx="9" fill="white" stroke="#577399" stroke-width="2"/>
<rect x="267" y="140" width="30" height="4" rx="2" fill="#EBF1FA"/>
<rect x="267" y="148" width="37" height="4" rx="2" fill="#EBF1FA"/>
<rect x="267" y="156" width="35" height="4" rx="2" fill="#EBF1FA"/>
<rect x="267" y="124" width="23" height="4" rx="2" fill="#EBF1FA"/>
<rect x="267" y="132" width="37" height="4" rx="2" fill="#EBF1FA"/>
<defs>
<filter id="filter0_i" x="0" y="35" width="332" height="27" filterUnits="userSpaceOnUse" color-interpolation-filters="sRGB">
<feFlood flood-opacity="0" result="BackgroundImageFix"/>
<feBlend mode="normal" in="SourceGraphic" in2="BackgroundImageFix" result="shape"/>
<feColorMatrix in="SourceAlpha" type="matrix" values="0 0 0 0 0 0 0 0 0 0 0 0 0 0 0 0 0 0 127 0" result="hardAlpha"/>
<feOffset dx="6" dy="4"/>
<feComposite in2="hardAlpha" operator="arithmetic" k2="-1" k3="1"/>
<feColorMatrix type="matrix" values="0 0 0 0 1 0 0 0 0 1 0 0 0 0 1 0 0 0 1 0"/>
<feBlend mode="normal" in2="shape" result="effect1_innerShadow"/>
</filter>
</defs>
</svg>
