<svg xmlns="http://www.w3.org/2000/svg" xmlns:xlink="http://www.w3.org/1999/xlink" width="100" height="100" viewBox="0 0 100 100">
    <defs>
        <path id="a" d="M50 100c27.614 0 50-22.386 50-50S77.614 0 50 0 0 22.386 0 50s22.386 50 50 50z"/>
    </defs>
    <g fill="none" fill-rule="evenodd">
        <mask id="b" fill="#fff">
            <use xlink:href="#a"/>
        </mask>
        <use fill="#ECF2FB" xlink:href="#a"/>
        <g mask="url(#b)">
            <path fill="#FFF" d="M20.608 100.743s-2.088-18.306 15.9-20.348h7.697v-3.546s5.415 2.325 10.898.26l.173 3.286h8.994s15.664 1.563 14.716 20.348H20.608z"/>
            <path fill="#577399" d="M78.837 101.065H20.046l.28-4.77c.544-9.312 7.882-16.42 16.278-16.42h7.601v.952h-7.09c-8.093 0-15.165 6.84-15.69 15.805l-.194 3.309h57.453l-.107-3.31c-.525-8.963-7.597-15.804-15.69-15.804h-7.179v-.951h7.638c8.396 0 15.734 7.107 16.279 16.42l.28 4.769h-1.068z"/>
            <path fill="#577399" d="M44.81 76.449v5.334a5.014 5.014 0 0 0 5.017 5.012 5.014 5.014 0 0 0 5.016-5.012v-5.224c.291-.089.58-.185.865-.29v5.55a5.926 5.926 0 0 1-5.924 5.927 5.926 5.926 0 0 1-5.925-5.927v-5.714c.314.124.631.238.952.344z"/>
            <path fill="#577399" d="M43.86 79.703h.95v21.016h-.95V79.703zM54.843 79.876h.952v21.016h-.952V79.876z"/>
            <path fill="#FFF" d="M50.044 22.19c10.759 0 19.25 10.053 18.975 22.134l-.294 12.84c-.26 11.38-8.621 20.377-18.681 20.377s-18.422-8.997-18.682-20.378l-.294-12.839c-.276-12.08 8.216-22.135 18.976-22.135z"/>
            <path fill="#577399" d="M69.883 43.926l-.308 13.36C69.303 69.13 60.542 78.493 50 78.493c-10.541 0-19.302-9.362-19.575-21.205l-.307-13.361C29.828 31.355 38.727 20.892 50 20.892c11.274 0 20.172 10.463 19.883 23.034zm-19.926-21.65c-10.612 0-18.988 9.975-18.716 21.962l.29 12.739c.257 11.292 8.503 20.218 18.426 20.218 9.923 0 18.17-8.926 18.426-20.218l.29-12.74c.272-11.986-8.104-21.961-18.716-21.961z"/>
            <path fill="#577399" d="M69.343 46.146l-.865 14.184s-3.84 16.372-18.68 18.31v.025l-.087-.012-.087.012v-.024c-14.84-1.939-18.68-18.311-18.68-18.311l-.866-14.184c3.851 17.093 7.092 18.162 7.092 18.162-.656-5.183 4.67-4.67 4.67-4.67 3.247.548 5.83.813 7.87.912 2.04-.099 4.625-.364 7.871-.912 0 0 5.326-.513 4.67 4.67 0 0 3.241-1.069 7.092-18.162zm-9.617 19.92c-.251-3.049-2.09-2.79-2.09-2.79-3.269.961-5.834 1.496-7.839 1.767v-.02c-1.99-.269-4.538-.799-7.783-1.753 0 0-1.826-.256-2.076 2.768 0 0-.733 3.03 1.73 4.324l3.113 3.287s2.128.674 2.076-1.903c0 0-.217-1.922 1.038-2.249h1.902v.057h1.916c1.264.33 1.046 2.267 1.046 2.267-.053 2.599 2.09 1.919 2.09 1.919l3.135-3.314c2.48-1.305 1.742-4.36 1.742-4.36z" opacity=".15"/>
            <path fill="#577399" d="M47.924 70.708h4.152a.346.346 0 1 1 0 .692h-4.152a.346.346 0 1 1 0-.692zM44.292 66.569l.481-.674a10.79 10.79 0 0 0 5.363 1.399c1.996 0 3.855-.525 5.414-1.43l.504.697c-1.696.982-3.717 1.553-5.888 1.553-2.164 0-4.18-.568-5.874-1.545z"/>
            <path fill="#F7FBFB" d="M30.096 45.874c-.002 0-.212-.167-.609-.292a2.86 2.86 0 0 0-1.167-.113 2.772 2.772 0 0 0-.472.092c-.638.184-1.29.63-1.673 1.551-.192.46-.319 1.04-.352 1.765-.008.181-.011.371-.007.571.003.2.013.41.03.629.033.438.093.917.182 1.438-.002 0-.083 1.575.48 3.385.53 1.77 1.801 3.944 4.149 4.566-.27-4.496-.279-9.076-.56-13.592z"/>
            <path fill="#577399" d="M30.364 46.056s-4.09-1.268-3.946 2.937c0 0 .609 6.097.873 6.658 0 0 1.606 3.55 4.257 3.708 2.59.153 0 0 0 0l.032 1.144s-4.659-.598-5.559-5.967l-.71-4.877s-.551-6.455 4.798-4.814c5.211 1.599 0 0 0 0l.255 1.21"/>
            <path fill="#577399" d="M29.014 54.526s-.229.173-.426.173c-.196 0-.422-.173-.422-.173l-.422-4.253s.582-2.095 3.053-.988l.058 1.216s-2.168-.769-2.123.189c.043.921.282 3.836.282 3.836z"/>
            <path fill="#F7FBFB" d="M69.827 45.884c.002 0 .213-.167.612-.292a2.886 2.886 0 0 1 1.172-.113c.154.017.313.046.474.092.641.184 1.296.63 1.68 1.55.193.46.32 1.04.354 1.764.008.18.01.371.007.57-.004.2-.014.41-.03.629-.033.438-.094.916-.183 1.437.002 0 .083 1.574-.482 3.383-.532 1.769-1.81 3.942-4.167 4.562.271-4.492.28-9.07.563-13.582z"/>
            <path fill="#577399" d="M69.557 46.065s4.108-1.266 3.963 2.936c0 0-.611 6.092-.877 6.654 0 0-1.613 3.547-4.275 3.704-2.602.154 0 0 0 0l-.033 1.144s4.68-.597 5.584-5.963l.713-4.874s.554-6.45-4.819-4.81c-5.234 1.597 0 0 0 0l-.256 1.21"/>
            <path fill="#577399" d="M70.913 54.53s.23.173.427.173c.198 0 .425-.173.425-.173l.424-4.25s-.585-2.094-3.067-.987l-.059 1.215s2.178-.768 2.133.188c-.043.921-.283 3.834-.283 3.834zM51.6 54.19h.303c.626.85.88 2.155 1.21 3.286.103.35.004.963-.086 1.21-.328.908-1.358.891-2.205 1.298-.228.109-.397.297-.692.346-.192-.17-.425-.203-.52-.476-.233-.322.068-.522.304-.649.426-.229 1.744-.454 1.902-.864.195-.223.066-.89 0-1.125-.167-.6-.248-1.101-.475-1.643-.152-.36-.417-.739-.26-1.168.13-.056.412-.12.519-.216zM40.486 46.838a1.73 1.73 0 1 1 0 3.46 1.73 1.73 0 0 1 0-3.46zM59.686 46.838a1.73 1.73 0 1 1 0 3.46 1.73 1.73 0 0 1 0-3.46z"/>
            <path fill="#F6F9FC" d="M60.465 53.238a2.162 2.162 0 1 1 0 4.324 2.162 2.162 0 0 1 0-4.324zM39.535 53.238a2.162 2.162 0 1 1 0 4.324 2.162 2.162 0 0 1 0-4.324z"/>
            <path fill="#577399" d="M67.297 45.281v6.4c0 1.564-1.525 4.005-4.011 4.144-.365-.017-7.75.007-7.75.007-3.32 0-3.98-3.978-3.98-3.978V47.53h-3.113v4.324s-.658 3.978-3.978 3.978c0 0-7.386-.024-7.75-.007-2.487-.14-4.012-2.58-4.012-4.144v-6.4h-2.768v-1.73h16.087s2.421.392 2.421 2.076h3.114c0-1.684 2.421-2.076 2.421-2.076h16.087v1.73h-2.768zm-20.583.865c0-.617-.692-.692-.692-.692h-11.59v6.054c0 1.886 2.595 2.595 2.595 2.595h7.092c2.44 0 2.595-2.595 2.595-2.595v-5.362zm18.854-.692h-11.59s-.692.075-.692.692v5.362s.155 2.595 2.595 2.595h7.092s2.595-.709 2.595-2.595v-6.054zm-2.422 10.378c.047 0 .093-.004.14-.007.039.002 0 .005-.14.007zm-26.432-.007c.047.003.093.006.14.007-.14-.002-.179-.005-.14-.007z"/>
            <path fill="#B7C4D5" d="M30.693 45.108s.667-10.418 7.096-15.049c0 0 9.283 6.315 23.886 0 0 0 6.46 2.942 7.443 15.05h.347s1.85-13.868-2.943-19.374c0 0-1.18-4.216-7.443-7.265l-2.25 1.384s-1.512-1.85-5.539-4.151c0 0-2.978 1.327-4.5 3.632l-2.423-1.557S40.98 19.328 39 22.103l-3.635.519-1.904 3.46s-4.545 3.66-3.116 18.68l.347.346z"/>
            <path fill="#577399" d="M70.157 45.108l-1.644-.086c-.984-12.107-6.838-14.27-6.838-14.27-14.603 6.314-23.886-.087-23.886-.087-5.615 4.79-6.49 14.53-6.49 14.53l-1.472-.433c-1.429-15.02 3.116-18.94 3.116-18.94l2.077-3.806 3.808-.519C40.808 18.723 44.453 17 44.453 17l2.26 1.47c1.522-2.305 4.67-3.46 4.67-3.46 4.028 2.302 5.536 4.066 5.536 4.066l2.333-1.298c6.262 3.049 7.962 7.87 7.962 7.87 4.792 5.506 2.943 19.46 2.943 19.46zm-4.07-19.113s-.744-3.784-7.006-6.833l-2.335 1.384s-1.508-1.85-5.535-4.151c0 0-2.716 1.413-4.238 3.719l-2.595-1.644s-3.123 1.464-5.102 4.238l-3.46.519L34 26.514s-3.772 2.88-3.373 14.53l.087-.087s1.2-7.241 7.075-11.676c0 0 9.543 6.488 24.146.173 0 0 5.395 2.537 7.265 11.59 0 0 1.11-9.311-3.114-15.05zM47.365 90l2.432-2.635L52.432 90l-1.418 1.419 2.23 9.122H46.35l2.433-9.122L47.364 90z"/>
            <path fill="#577399" d="M52.777 100.68l-2.452-9.149.51-.153.338-.359 2.593 9.677-.99-.016zm-6.915-.108l2.56-9.508.164.141.52.346.17.017-2.427 9.02-.987-.016z"/>
            <path fill="#577399" d="M55.705 92.592l-.673.673-2.617-2.618a2.85 2.85 0 0 1-4.889-.098l-2.732 2.732-.675-.674 5.38-5.38.42-.39.421.39 5.365 5.365zm-7.65-2.572a2.117 2.117 0 0 0 3.779.046l-1.913-1.912-1.866 1.866z"/>
            <path fill="#577399" d="M50.23 19.596c.128.095.065.182.038.3-.042.177-.09.352-.118.528-.042.267-.08.534-.09.798-.01.221-.006.442-.002.661.002.127.024.254.027.38.001.051.015.102.016.153l.01.042c.001.065.018.127.02.191l.032.176c.015.093.023.19.051.28l.01.07c.022.071.03.145.052.217l.005.043c.033.104.048.213.08.316.054.168.097.336.156.503.039.11.072.227.111.339.07.198.155.392.232.588.046.12.109.23.159.35.141.336.323.667.497.997.056.107.117.205.18.31.04.066.08.14.117.209.02.038.046.066.068.103.048.08.1.165.146.246.044.074.093.137.14.21.053.078.104.166.156.244.091.136.188.268.278.403.094.14.2.263.299.401.192.267.417.523.624.792.063.08.137.15.199.228.03.038.083.072.104.113.008.016.013.042.019.06.01.031.007.068.007.1.001.051.004.103-.005.157-.01.055-.045.116-.068.171a.312.312 0 0 1-.09.104c-.022.018-.03.035-.053.053a.587.587 0 0 1-.187.102c-.065.02-.15-.04-.202-.102-.09-.109-.204-.209-.291-.318-.02-.023-.04-.034-.058-.057-.1-.127-.224-.247-.323-.372-.023-.028-.048-.044-.07-.073-.077-.1-.168-.191-.246-.293-.196-.257-.408-.505-.586-.764-.041-.06-.086-.108-.126-.169-.288-.43-.577-.852-.807-1.29-.06-.115-.128-.22-.185-.336a17.546 17.546 0 0 1-.449-.987c-.018-.044-.031-.092-.048-.136a17.939 17.939 0 0 1-.212-.595c-.068-.2-.107-.41-.17-.612-.014-.043-.018-.089-.032-.132l-.006-.047c-.015-.048-.016-.098-.03-.144-.035-.11-.046-.23-.065-.344-.018-.107-.043-.217-.046-.327l-.012-.06c-.002-.07-.02-.14-.022-.211-.003-.122-.022-.244-.025-.367-.002-.152-.008-.304-.007-.456 0-.152.013-.301.022-.455.024-.416.1-.833.2-1.264.037-.156.095-.31.144-.466.034-.108.088-.211.126-.318.01-.028.025-.044.036-.072.022-.06.052-.134.108-.174a.164.164 0 0 1 .111-.018c.02.006.034.021.052.02zm-4.058 2.981c.092.067.085.165.087.247.003.085.027.17.03.256l.03.178c0 .048.013.094.02.14.009.05.012.098.027.145l.027.16c.015.047.016.098.03.144.046.143.063.295.108.438.049.151.084.308.137.458.068.196.136.394.21.59.039.1.084.193.125.293.031.076.061.159.097.233.147.31.3.618.461.926.129.244.282.477.423.717.043.075.092.138.14.21.109.164.224.333.336.499.105.156.231.302.342.456.018.025.039.038.056.064.056.08.13.159.191.238.031.04.07.068.099.11.061.091.1.262.07.368-.05.184-.228.308-.364.355-.04.015-.104.04-.148.027-.07-.02-.115-.083-.156-.134-.053-.066-.114-.115-.165-.181-.095-.122-.206-.232-.3-.355-.198-.26-.4-.51-.576-.772a10.884 10.884 0 0 1-1.007-1.857c-.109-.262-.197-.533-.285-.8-.031-.094-.048-.196-.078-.29-.042-.13-.06-.265-.1-.394l-.007-.052c-.006-.028-.016-.056-.021-.085l-.01-.074c-.015-.049-.019-.1-.027-.149-.008-.048-.021-.096-.022-.145l-.019-.095c-.003-.13-.034-.257-.037-.388 0-.03-.01-.063-.011-.094-.003-.125-.016-.25-.015-.375 0-.143 0-.287.008-.43.004-.056.013-.109.016-.165.003-.061.014-.12.022-.184.005-.038.005-.084.016-.122.012-.039.051-.101.088-.118a.189.189 0 0 1 .1-.014c.021.006.034.022.052.021zm-3.101.647c.103.076.075.171.074.264-.001.15.014.3.018.448.003.119.033.237.036.356l.022.113c.001.066.016.15.035.214l.006.047a.798.798 0 0 0 .025.108l.008.06c.026.085.035.176.062.26.064.201.116.407.186.608.153.435.363.857.585 1.28.073.14.164.268.238.405.031.06.072.107.107.163.095.156.206.31.309.464.143.213.318.407.47.618.053.074.12.138.172.21.046.063.106.11.155.173.098.124.221.242.325.365.06.071.13.129.188.198.065.077.146.138.21.212l.048.043c.065.077.156.145.223.221.028.033.062.049.091.081.094.107.227.194.323.302.028.03.064.051.089.079l.031.022c.034.037.085.071.12.109l.033.024c.055.06.14.11.196.171l.044.032c.07.078.184.134.256.214l.097.073c.015.017.05.032.068.053.049.054.132.096.185.147.031.03.08.052.107.081.024.026.066.043.087.066l.203.145c.16.114.32.221.474.33.073.053.164.094.21.158.025.037.035.09.049.13a.53.53 0 0 1 .017.294c-.008.03-.023.05-.034.081a.426.426 0 0 1-.102.175c-.034.03-.07.072-.11.098-.058.041-.123.02-.196-.01l-.069-.046c-.111-.048-.215-.15-.326-.198-.022-.01-.044-.033-.062-.04l-.11-.076c-.042-.017-.078-.06-.124-.08-.039-.017-.078-.048-.116-.075l-.041-.03c-.037-.015-.081-.05-.116-.074l-.15-.108c-.055-.023-.115-.077-.166-.114-.043-.03-.102-.064-.134-.1-.03-.02-.059-.042-.088-.063a2.488 2.488 0 0 1-.176-.133l-.088-.063c-.043-.047-.117-.083-.16-.13l-.06-.042c-.03-.034-.083-.064-.114-.098l-.052-.037c-.023-.026-.065-.053-.089-.08l-.041-.029c-.082-.09-.2-.158-.28-.247l-.074-.06c-.103-.116-.241-.208-.34-.322-.027-.03-.057-.045-.084-.075-.091-.106-.208-.201-.296-.306-.014-.017-.029-.021-.043-.039-.042-.05-.095-.1-.135-.151-.019-.024-.04-.033-.058-.057-.14-.176-.303-.333-.438-.509-.239-.312-.488-.617-.677-.938-.042-.073-.093-.134-.135-.207-.073-.128-.154-.255-.223-.386-.108-.206-.209-.413-.307-.62-.07-.145-.124-.302-.18-.45-.048-.122-.092-.24-.135-.363-.042-.12-.072-.245-.112-.366-.04-.123-.056-.254-.095-.378-.015-.047-.013-.106-.028-.153-.036-.116-.045-.241-.065-.36a6.586 6.586 0 0 1-.056-1.554c.008-.122.034-.237.054-.361.009-.057.027-.129.09-.17a.201.201 0 0 1 .107-.018c.02.005.034.021.052.02z" opacity=".2"/>
        </g>
    </g>
</svg>
