<svg xmlns="http://www.w3.org/2000/svg" xmlns:xlink="http://www.w3.org/1999/xlink" width="100" height="100" viewBox="0 0 100 100">
    <defs>
        <path id="a" d="M50 100c27.614 0 50-22.386 50-50S77.614 0 50 0 0 22.386 0 50s22.386 50 50 50z"/>
    </defs>
    <g fill="none" fill-rule="evenodd">
        <mask id="b" fill="#fff">
            <use xlink:href="#a"/>
        </mask>
        <use fill="#ECF2FB" xlink:href="#a"/>
        <g mask="url(#b)">
            <path fill="#FFF" d="M20.608 101.338s-2.088-18.306 15.9-20.349h7.697v-3.546s5.415 2.326 10.898.26l.173 3.286h8.994s15.664 1.564 14.716 20.349H20.608z"/>
            <path fill="#577399" d="M47.365 90.595l2.432-2.636 2.635 2.636-1.418 1.419 2.23 9.121H46.35l2.433-9.121-1.42-1.42z"/>
            <path fill="#577399" d="M78.837 101.66H20.046l.28-4.77c.544-9.313 7.882-16.42 16.278-16.42h7.601v.952h-7.09c-8.093 0-15.165 6.84-15.69 15.804l-.194 3.31h57.453l-.107-3.31c-.525-8.963-7.597-15.804-15.69-15.804h-7.179v-.952h7.638c8.396 0 15.734 7.107 16.279 16.42l.28 4.77h-1.068z"/>
            <path fill="#577399" d="M44.81 77.043v5.334a5.014 5.014 0 0 0 5.017 5.012 5.014 5.014 0 0 0 5.016-5.012v-5.224c.291-.088.58-.185.865-.289v5.55a5.926 5.926 0 0 1-5.924 5.927 5.926 5.926 0 0 1-5.925-5.927V76.7c.314.124.631.238.952.343z"/>
            <path fill="#577399" d="M43.86 80.297h.95v21.017h-.95V80.297zM54.843 80.47h.952v21.016h-.952V80.47zM52.98 101.275l-2.452-9.15.51-.152.338-.36 2.593 9.677-.99-.015zm-6.915-.108l2.559-9.509.165.142.52.346.17.017-2.427 9.02-.987-.016z"/>
            <path fill="#577399" d="M55.705 93.187l-.673.672-2.617-2.617a2.85 2.85 0 0 1-4.889-.099l-2.732 2.733-.675-.675 5.38-5.38.42-.39.421.39 5.365 5.366zm-7.65-2.573a2.117 2.117 0 0 0 3.779.047l-1.913-1.913-1.866 1.866z"/>
            <path fill="#FFF" d="M50.001 24.6c10.952 0 19.284 9.605 18.838 20.595l-.605 14.915c-1.714 10.126-8.695 17.437-18.156 18.458-9.23-.97-16.347-8.335-18.309-18.458l-.605-14.915C30.718 34.205 39.05 24.6 50.001 24.6z"/>
            <path fill="#577399" d="M70.049 44.563l-.644 15.584C67.58 70.727 60.15 78.366 50.08 79.432c-9.822-1.013-17.398-8.708-19.486-19.285l-.644-15.584c-.474-11.484 8.393-21.52 20.05-21.52 11.655 0 20.522 10.036 20.048 21.52zM50 24.254c-10.951 0-19.283 9.605-18.837 20.595l.605 14.915c1.962 10.124 9.08 17.488 18.309 18.458 9.46-1.021 16.442-8.332 18.156-18.458l.605-14.915C69.285 33.86 60.953 24.254 50 24.254z"/>
            <path fill="#577399" d="M59.34 65.526c-1.571 1.364-5.122 2.663-9.254 2.663-4.13 0-7.682-1.299-9.254-2.663 0 0-.16-.443.076-.679.24-.24.616-.188.616-.188 1.57 1.366 4.43 2.492 8.562 2.492 4.133 0 6.992-1.126 8.563-2.492 0 0 .384-.143.57.044.36.36.122.823.122.823zM47.232 70.265h5.536v.865h-5.536v-.865z"/>
            <path fill="#FFF" d="M30.096 46.469c-.002 0-.212-.168-.609-.292a2.86 2.86 0 0 0-1.167-.113 2.772 2.772 0 0 0-.472.092c-.638.183-1.29.63-1.673 1.55-.192.461-.319 1.04-.352 1.765-.008.182-.011.372-.007.572.003.2.013.41.03.628.033.439.093.917.182 1.438-.002 0-.083 1.575.48 3.386.53 1.77 1.801 3.944 4.149 4.565-.27-4.495-.279-9.076-.56-13.591z"/>
            <path fill="#577399" d="M30.364 46.65s-4.09-1.267-3.946 2.937c0 0 .609 6.097.873 6.66 0 0 1.606 3.549 4.257 3.706 2.59.154 0 0 0 0l.032 1.144s-4.659-.597-5.559-5.966l-.71-4.878s-.551-6.455 4.798-4.814c5.211 1.6 0 0 0 0l.255 1.211"/>
            <path fill="#577399" d="M29.014 55.12s-.229.174-.426.174c-.196 0-.422-.173-.422-.173l-.422-4.254s.582-2.094 3.053-.987l.058 1.216s-2.168-.77-2.123.188c.043.922.282 3.837.282 3.837z"/>
            <path fill="#FFF" d="M69.827 46.479c.002 0 .213-.168.612-.292a2.886 2.886 0 0 1 1.172-.113c.154.016.313.046.474.092.641.183 1.296.63 1.68 1.55.193.46.32 1.039.354 1.763.008.181.01.372.007.571-.004.2-.014.41-.03.628-.033.439-.094.917-.183 1.437.002 0 .083 1.574-.482 3.384-.532 1.768-1.81 3.941-4.167 4.562.271-4.493.28-9.07.563-13.582z"/>
            <path fill="#577399" d="M69.557 46.66s4.108-1.266 3.963 2.935c0 0-.611 6.093-.877 6.654 0 0-1.613 3.548-4.275 3.705-2.602.154 0 0 0 0l-.033 1.143s4.68-.597 5.584-5.962l.713-4.874s.554-6.451-4.819-4.81c-5.234 1.597 0 0 0 0l-.256 1.209"/>
            <path fill="#577399" d="M70.913 55.125s.23.172.427.172c.198 0 .425-.172.425-.172l.424-4.25s-.585-2.094-3.067-.988l-.059 1.216s2.178-.769 2.133.188c-.043.921-.283 3.834-.283 3.834zM51.6 54.784h.303c.626.85.88 2.156 1.21 3.286.103.35.004.963-.086 1.211-.328.907-1.358.891-2.205 1.297-.228.11-.397.298-.692.346-.192-.169-.425-.202-.52-.475-.233-.322.068-.523.304-.649.426-.229 1.744-.455 1.902-.865.195-.222.066-.89 0-1.124-.167-.6-.248-1.102-.475-1.643-.152-.36-.417-.74-.26-1.168.13-.056.412-.12.519-.216zM39.622 48.124h1.21a1.21 1.21 0 1 1 0 2.422h-1.21a1.21 1.21 0 1 1 0-2.422zM59.34 48.124h1.211a1.21 1.21 0 1 1 0 2.422h-1.21a1.21 1.21 0 1 1 0-2.422z"/>
            <path fill="#F6F9FC" d="M40.4 53.832c1.672 0 3.027.096 3.027 1.99 0 1.952-1.355 1.989-3.027 1.989-1.672 0-3.027-.356-3.027-1.99 0-1.908 1.355-1.989 3.027-1.989zM60.465 53.832c1.672 0 3.027.096 3.027 1.99 0 1.952-1.355 1.989-3.027 1.989-1.672 0-3.027-.356-3.027-1.99 0-1.908 1.355-1.989 3.027-1.989z"/>
            <path fill="#577399" d="M55.473 44.784s5.268-3.026 8.74.796l1.79-.051S63.77 40.657 54.61 43.73l.862 1.255M44.48 44.804s-5.25-3-8.712.788l-1.783-.05s2.224-4.828 11.354-1.782l-.86 1.244"/>
            <path fill="#577399" d="M31.683 43.277s5.695-2.888 5.065-12.816c0 0 9.11 9.982 31.068 6.939l1.038 9.34S81.763 22.823 58.65 17.336c-22.62-5.37-22.881 8.797-22.881 8.797s-6.937-1.037-7.516 5.715c-.58 6.751 1.51 13.856 1.51 13.856l1.73 1.383.191-3.81z"/>
        </g>
    </g>
</svg>
