<svg xmlns="http://www.w3.org/2000/svg" xmlns:xlink="http://www.w3.org/1999/xlink" width="100" height="100" viewBox="0 0 100 100">
    <defs>
        <path id="a" d="M50 100c27.614 0 50-22.386 50-50S77.614 0 50 0 0 22.386 0 50s22.386 50 50 50z"/>
    </defs>
    <g fill="none" fill-rule="evenodd">
        <mask id="b" fill="#fff">
            <use xlink:href="#a"/>
        </mask>
        <use fill="#ECF2FB" xlink:href="#a"/>
        <g mask="url(#b)">
            <path fill="#FFF" d="M20.405 102.324s-2.088-18.306 15.9-20.348h7.698V78.43s5.414 2.325 10.897.26l.173 3.286h8.995s15.663 1.563 14.716 20.348H20.405z"/>
            <path fill="#577399" d="M78.92 102.849H20.13l.28-4.77c.544-9.313 7.882-16.42 16.278-16.42h6.39v.952h-5.88c-8.093 0-15.164 6.84-15.69 15.805l-.194 3.308h57.454l-.107-3.308c-.526-8.964-7.597-15.805-15.69-15.805H55.1v-.952h8.33c8.396 0 15.734 7.107 16.279 16.42l.279 4.77H78.92z"/>
            <path fill="#577399" d="M49.132 92.384a8.39 8.39 0 0 1-8.057-10.725h2.436v.952h-1.773a7.524 7.524 0 1 0 14.79 0h-1.774v-.952h2.436a8.39 8.39 0 0 1-8.057 10.724z"/>
            <path fill="#577399" d="M44.203 78.232v5.334a5.014 5.014 0 0 0 5.016 5.012 5.014 5.014 0 0 0 5.016-5.012v-5.224c.291-.088.58-.184.865-.288v5.549a5.926 5.926 0 0 1-5.924 5.927 5.926 5.926 0 0 1-5.925-5.927v-5.714c.314.124.631.238.952.343z"/>
            <path fill="#FFF" d="M49.435 23.973c10.76 0 19.252 10.054 18.975 22.135l-.293 12.84c-.26 11.38-8.621 20.376-18.682 20.376-10.06 0-18.421-8.996-18.681-20.377l-.294-12.84c-.276-12.08 8.216-22.134 18.975-22.134z"/>
            <path fill="#577399" d="M69.275 45.71l-.308 13.36c-.272 11.844-9.033 21.206-19.575 21.206-10.541 0-19.302-9.362-19.575-21.205l-.308-13.361c-.289-12.572 8.61-23.034 19.883-23.034 11.274 0 20.172 10.462 19.883 23.034zM49.349 24.06c-10.612 0-18.988 9.975-18.716 21.961l.29 12.74c.256 11.292 8.503 20.217 18.426 20.217 9.923 0 18.17-8.925 18.426-20.218l.29-12.739c.272-11.986-8.104-21.962-18.716-21.962z"/>
            <path fill="#577399" d="M47.316 72.492h4.152a.346.346 0 1 1 0 .692h-4.152a.346.346 0 1 1 0-.692zM43.683 68.353l.482-.675a10.79 10.79 0 0 0 5.363 1.4c1.996 0 3.854-.525 5.414-1.43l.504.697c-1.696.982-3.718 1.552-5.888 1.552-2.164 0-4.181-.567-5.875-1.544z"/>
            <path fill="#FFF" d="M29.488 47.658c-.002 0-.212-.167-.609-.292a2.86 2.86 0 0 0-1.167-.113 2.772 2.772 0 0 0-.472.092c-.639.183-1.29.63-1.673 1.55-.192.461-.319 1.04-.352 1.766-.009.18-.011.371-.007.571.003.2.013.41.03.629.033.438.093.916.182 1.438-.002 0-.083 1.575.48 3.385.53 1.77 1.801 3.944 4.149 4.566-.27-4.496-.279-9.076-.561-13.592z"/>
            <path fill="#577399" d="M29.756 47.84s-4.09-1.268-3.946 2.937c0 0 .609 6.096.873 6.658 0 0 1.606 3.55 4.257 3.707 2.59.154 0 0 0 0l.032 1.144s-4.659-.597-5.559-5.966l-.71-4.878s-.551-6.455 4.798-4.813c5.211 1.599 0 0 0 0l.255 1.21"/>
            <path fill="#577399" d="M28.406 56.31s-.23.173-.426.173c-.196 0-.422-.173-.422-.173l-.423-4.254s.583-2.094 3.054-.987l.058 1.216s-2.168-.769-2.123.189c.043.921.282 3.836.282 3.836z"/>
            <path fill="#FFF" d="M69.219 47.668c.002 0 .213-.167.611-.292a2.886 2.886 0 0 1 1.173-.113c.154.017.313.046.474.092.641.183 1.296.63 1.68 1.55.193.46.32 1.04.354 1.764.008.18.01.37.007.57-.004.2-.014.41-.03.629-.034.438-.094.916-.183 1.437.002 0 .083 1.574-.482 3.383-.532 1.769-1.81 3.941-4.167 4.562.271-4.493.28-9.07.563-13.582z"/>
            <path fill="#577399" d="M68.95 47.85s4.107-1.267 3.962 2.934c0 0-.611 6.093-.877 6.655 0 0-1.613 3.547-4.275 3.704-2.602.154 0 0 0 0l-.033 1.143s4.68-.596 5.584-5.962l.713-4.874s.554-6.45-4.819-4.81c-5.234 1.597 0 0 0 0l-.256 1.21"/>
            <path fill="#577399" d="M70.305 56.314s.23.173.427.173c.198 0 .425-.173.425-.173l.424-4.25s-.585-2.094-3.067-.988l-.059 1.216s2.178-.769 2.133.188c-.044.921-.283 3.834-.283 3.834zM50.992 55.973h.303c.625.85.88 2.156 1.21 3.286.103.35.003.964-.086 1.211-.328.907-1.358.891-2.205 1.298-.228.109-.398.297-.692.346-.193-.17-.425-.203-.52-.476-.233-.322.068-.523.303-.649.427-.229 1.745-.454 1.903-.865.195-.222.066-.89 0-1.124-.167-.6-.248-1.102-.476-1.643-.15-.36-.416-.74-.259-1.168.13-.056.412-.12.519-.216zM38.408 49.867h3.114c.43 0 .778.418.778.934s-.348.934-.778.934h-3.114c-.43 0-.778-.418-.778-.934s.348-.934.778-.934zM57.435 49.66h3.114c.43 0 .778.418.778.934 0 .515-.348.934-.778.934h-3.114c-.43 0-.778-.419-.778-.934 0-.516.348-.935.778-.935z"/>
            <path fill="#F6F9FC" d="M59.857 55.022a2.162 2.162 0 1 1 0 4.324 2.162 2.162 0 0 1 0-4.324zM38.927 55.022a2.162 2.162 0 1 1 0 4.324 2.162 2.162 0 0 1 0-4.324z"/>
            <path fill="#577399" d="M66.69 47.065v6.4c0 1.564-1.526 4.004-4.012 4.144-.366-.017-7.751.007-7.751.007-3.32 0-3.978-3.978-3.978-3.978v-4.324h-3.114v4.324s-.658 3.978-3.978 3.978c0 0-7.386-.024-7.75-.007-2.487-.14-4.012-2.58-4.012-4.144v-6.4h-2.768v-1.73h16.087s2.421.391 2.421 2.076h3.114c0-1.685 2.421-2.076 2.421-2.076h16.087v1.73h-2.768zm-20.585.865c0-.617-.691-.692-.691-.692h-11.59v6.054c0 1.886 2.595 2.594 2.595 2.594h7.092c2.44 0 2.594-2.594 2.594-2.594V47.93zm18.854-.692H53.37s-.692.075-.692.692v5.362s.155 2.594 2.595 2.594h7.092s2.594-.708 2.594-2.594v-6.054zm-2.421 10.378c.047 0 .093-.004.14-.007.039.002 0 .004-.14.007zm-26.432-.007c.047.003.093.006.14.007-.14-.003-.179-.005-.14-.007z"/>
            <path fill="#B7C4D6" d="M30.576 46.859s-.775-8.237 4.286-12.594c0 0 12.03 11.823 28.368 0 0 0 5.87 5.872 5.362 12.28 0 0 9.9-11.354 2.249-13.49 0 0-1.887.548-2.595-2.25-.708-2.798-2.028-11.834-19.892-12.108C30.49 18.423 31.75 29.422 31.75 29.422c.056.034-9.923 4.887-1.173 17.437z"/>
            <path fill="#577399" d="M68.678 47.497c-.208-7.111-5.448-12.454-5.448-12.454-16.338 11.318-28.281 0-28.281 0-3.826 2.928-4.325 12.368-4.325 12.368-9.867-12.595.576-18.128.52-18.162 0 0-1-11.463 16.864-11.157 18.606.319 19.963 9.278 20.757 12.454.633 2.533 2.854 2.076 2.854 2.076 7.948 3.086-2.94 14.875-2.94 14.875zm1.903-13.924s-2.116.552-2.94-2.768c-.696-2.8-1.423-11.228-19.287-11.502-17.864-.274-16.086 10.551-16.086 10.551.056.034-8.979 4.328-2.336 14.962 0 0-.217-6.973 4.844-11.33 0 0 11.639 12.294 28.627.087 0 0 5.383 5.125 5.794 11.416 0 0 7.938-9.978 1.384-11.416z"/>
        </g>
    </g>
</svg>
