<!-- Generated by IcoMoon.io -->
<svg version="1.1" xmlns="http://www.w3.org/2000/svg" width="1024" height="1024" viewBox="0 0 1024 1024">
<title></title>
<g id="icomoon-ignore">
</g>
<path d="M512 0c282.77 0 512 229.23 512 512s-229.23 512-512 512-512-229.23-512-512 229.23-512 512-512zM631.358 377.145c-15.217-15.766-36.174-21.303-58.254-21.043-29.453 0.35-60.905 11.021-83.403 21.501-53.836 25.079-95.144 69.491-129.548 116.966-6.195 8.547-9.428 18.638 1.472 26.505 9.295 6.709 15.988 0.706 21.595-5.278l0.368-0.395c0.427-0.46 0.849-0.917 1.264-1.368 6.291-6.812 12.37-13.866 18.45-20.926l3.041-3.53c18.257-21.166 36.83-42.029 61.41-56.184 14.613-8.415 25.142 4.582 22.886 19.18-1.352 8.754-5.955 16.999-9.173 25.463-11.435 30.060-23.038 60.057-34.593 90.074-12.661 32.907-25.283 65.827-37.561 98.879l-2.132 5.736c-10.832 29.141-21.503 58.065-28.562 88.478-5.64 24.316-13.233 53.817-2.324 77.705 6.283 13.76 19.611 23.217 34.436 25.369 20.22 2.935 42.083 3.271 61.868-1.231 10.249-2.33 20.331-5.371 30.171-9.069 30.211-11.359 57.721-28.878 82.497-49.469 25.205-21.005 47.423-45.852 67.683-71.622 6.512-8.283 14.402-17.442 16.62-28.051 2.084-9.95-6.798-24.161-18.307-18.386-6.077 3.050-10.629 10.596-15.057 15.611-5.557 6.292-11.223 12.492-16.953 18.624-11.46 12.26-23.207 24.247-35.005 36.177-7.221 7.302-16.197 13.474-25.42 18.007-11.515 5.658-20.685-0.617-19.439-13.367 1.143-11.709 4.008-23.544 8.025-34.627 16.163-44.627 32.635-89.139 48.978-133.699 10.217-27.847 20.382-55.713 30.399-83.635 9.362-26.095 17.341-51.98 20.711-79.627 2.324-19.045-2.613-38.745-16.143-52.766zM665.342 163.013c-48.716-18.954-106.79 13.393-116.573 64.937-7.067 37.218 7.113 69.989 36.266 83.816 56.408 26.752 123.885-15.975 123.888-78.445 0.003-34.665-15.26-59.288-43.581-70.308z"></path>
</svg>
