<!-- Generated by IcoMoon.io -->
<svg version="1.1" xmlns="http://www.w3.org/2000/svg" width="1024" height="1024" viewBox="0 0 1024 1024">
<title>Ринок</title>
<g id="icomoon-ignore">
</g>
<path d="M514.108 53.333c28.365-0.001 52.809-0.003 72.38 2.629 20.979 2.82 41.084 9.18 57.395 25.489 16.307 16.309 22.669 36.416 25.489 57.393 2.633 19.573 2.628 44.015 2.628 72.383v316.901c10.010-3.537 20.779-5.461 32-5.461h128c53.018 0 96 42.982 96 96v288h10.667c17.673 0 32 14.327 32 32s-14.327 32-32 32h-853.333c-17.673 0-32-14.327-32-32s14.327-32 32-32h10.667v-501.333c0-53.019 42.981-96 96-96h128c11.22 0 21.991 1.925 32 5.463v-103.569c-0.002-28.367-0.003-52.81 2.629-72.383 2.82-20.977 9.18-41.084 25.489-57.393s36.416-22.669 57.395-25.489c19.571-2.631 44.015-2.63 72.38-2.629h4.215zM864 906.667v-288c0-17.673-14.327-32-32-32h-128c-17.673 0-32 14.327-32 32v288h192zM608 906.667v-693.333c0-31.075-0.068-51.162-2.057-65.962-1.869-13.879-4.881-18.23-7.317-20.666s-6.784-5.449-20.663-7.315c-14.801-1.99-34.889-2.057-65.963-2.057s-51.162 0.068-65.963 2.057c-13.879 1.866-18.227 4.879-20.665 7.315-2.436 2.436-5.449 6.786-7.315 20.666-1.99 14.8-2.058 34.887-2.058 65.962v693.333h192zM352 906.667v-501.333c0-17.673-14.327-32-32-32h-128c-17.673 0-32 14.327-32 32v501.333h192z"></path>
</svg>
