<?xml version="1.0" encoding="iso-8859-1"?>
<!-- Uploaded to: SVG Repo, www.svgrepo.com, Generator: SVG Repo Mixer Tools -->
<svg fill="#000000" height="800px" width="800px" version="1.1" id="Layer_1" xmlns="http://www.w3.org/2000/svg" xmlns:xlink="http://www.w3.org/1999/xlink" 
	 viewBox="0 0 512.001 512.001" xml:space="preserve">
<g>
	<g>
		<g>
			<path d="M463.952,90.044H353.617c-19.601-118.938-175.625-118.988-195.233,0H48.048C21.554,90.044,0,111.598,0,138.091V463.13
				c0,26.494,21.554,48.049,48.048,48.049h415.905c26.493,0,48.048-21.555,48.048-48.049V138.091
				C512,111.598,490.446,90.044,463.952,90.044z M196.516,89.049c10.974-66.596,107.779-67.89,119.132,0.995H196.352L196.516,89.049
				z M474.538,463.131h-0.001c0,5.837-4.748,10.586-10.585,10.586H48.048c-5.836,0-10.585-4.749-10.585-10.586v-325.04
				c0-5.837,4.748-10.585,10.585-10.585c7.491,0,409.911,0,415.905,0c5.836,0,10.585,4.748,10.585,10.585V463.131z"/>
			<path d="M424.739,158.573H87.261c-10.345,0-18.732,8.387-18.732,18.732v246.612c0,10.345,8.387,18.732,18.732,18.732h337.478
				c10.345,0,18.732-8.387,18.732-18.732V177.305C443.471,166.96,435.084,158.573,424.739,158.573z M406.007,405.185H105.993
				V196.037h300.015V405.185z"/>
			<path d="M221.491,328.45c-7.347,0-13.146,9.667-13.146,16.24c0,12.373,18.946,24.36,42.145,25.133v4.833
				c0,2.707,3.093,5.221,7.347,5.221c3.673,0,7.347-2.514,7.347-5.221v-5.606c22.619-3.673,38.087-18.174,38.087-42.146
				c0-26.1-20.492-35.187-38.087-41.76v-28.226c12.567,0.965,16.239,7.153,22.619,7.153c8.507,0,11.987-10.633,11.987-15.852
				c0-13.341-22.619-16.433-34.606-16.82v-4.834c0-2.706-3.673-5.22-7.347-5.22c-4.253,0-7.347,2.514-7.347,5.22v5.413
				c-20.494,2.9-38.666,14.694-38.666,39.247c0,24.746,20.88,33.06,38.666,39.826v31.321
				C236.184,339.858,229.611,328.45,221.491,328.45z M263.25,316.271c6.961,3.287,11.793,7.347,11.793,13.727
				c0,6.959-5.22,10.632-11.793,12.179V316.271z M240.051,268.324c0-4.64,3.673-9.086,12.373-10.827v23.008
				C245.077,277.411,240.051,273.931,240.051,268.324z"/>
		</g>
	</g>
</g>
</svg>