<?xml version="1.0" ?><svg viewBox="0 0 30 30" xmlns="http://www.w3.org/2000/svg"><title/><g data-name="Layer 2" id="Layer_2"><g id="Interface-Solid"><g id="work-business-solid-briefcase-1"><path d="M15,2a4.1,4.1,0,0,0-4,4.18506v.03711h8V6.18506A4.1,4.1,0,0,0,15,2Z" fill="none"/><path d="M15,14.8335c.69727,0,1.28613.42285,1.28613.92285a1,1,0,0,0,2,0A2.97807,2.97807,0,0,0,16,12.98669V12a1,1,0,0,0-2,0v.98669a2.97807,2.97807,0,0,0-2.28613,2.76966c0,1.9458,2.18164,2.86377,2.89843,3.16553,1.06348.44775,1.67383.92919,1.67383,1.32177,0,.5-.58886.92285-1.28613.92285s-1.28613-.42285-1.28613-.92285a1,1,0,0,0-2,0A2.97807,2.97807,0,0,0,14,23.01331V24a1,1,0,0,0,2,0v-.98669a2.97807,2.97807,0,0,0,2.28613-2.76966c0-1.9458-2.18164-2.86377-2.89843-3.16553-1.06348-.44775-1.67383-.92919-1.67383-1.32177C13.71387,15.25635,14.30273,14.8335,15,14.8335Z" fill="none"/><path d="M22,6.22217H21V6c0-.02112-.01074-.03876-.012-.05957A6.08835,6.08835,0,0,0,15,0,6.08832,6.08832,0,0,0,9.012,5.94049C9.01074,5.96124,9,5.97888,9,6v.22217H8V29.96289c0,.01318-.007.024-.00751.03711h14.015C22.007,29.98694,22,29.97607,22,29.96289ZM15.3877,17.07812c.71679.30176,2.89843,1.21973,2.89843,3.16553A2.97807,2.97807,0,0,1,16,23.01331V24a1,1,0,0,1-2,0v-.98669a2.97807,2.97807,0,0,1-2.28613-2.76966,1,1,0,0,1,2,0c0,.5.58886.92285,1.28613.92285s1.28613-.42285,1.28613-.92285c0-.39258-.61035-.874-1.67383-1.32177-.71679-.30176-2.89843-1.21973-2.89843-3.16553A2.97807,2.97807,0,0,1,14,12.98669V12a1,1,0,0,1,2,0v.98669a2.97807,2.97807,0,0,1,2.28613,2.76966,1,1,0,0,1-2,0c0-.5-.58886-.92285-1.28613-.92285s-1.28613.42285-1.28613.92285C13.71387,16.14893,14.32422,16.63037,15.3877,17.07812ZM19,6.22217H11V6.18506A4.1,4.1,0,0,1,15,2a4.1,4.1,0,0,1,4,4.18506Z"/><path d="M26,6.22217H24V29.96289c0,.01318-.007.024-.00751.03711H26a4.00427,4.00427,0,0,0,4-4V10.22217A4.00427,4.00427,0,0,0,26,6.22217Z"/><path d="M6,6.22217H4a4.00427,4.00427,0,0,0-4,4V26a4.00427,4.00427,0,0,0,4,4H6.00751C6.007,29.98694,6,29.97607,6,29.96289Z"/></g></g></g></svg>