<!-- Generated by IcoMoon.io -->
<svg version="1.1" xmlns="http://www.w3.org/2000/svg" width="1024" height="1024" viewBox="0 0 1024 1024">
<title>Вийти</title>
<g id="icomoon-ignore">
</g>
<path d="M652.203 667.279c4.026 4.026 9.227 6.039 14.596 6.039s10.572-2.012 14.596-6.039l140.765-140.765c8.055-8.055 8.055-20.972 0-29.027l-140.765-140.765c-8.055-8.055-20.972-8.055-29.027 0s-8.055 20.972 0 29.027l105.701 105.701h-385.723c-11.408 0-20.639 9.227-20.639 20.639s9.227 20.639 20.639 20.639h385.557l-105.701 105.701c-8.055 7.886-8.055 20.972 0 28.858z"></path>
<path d="M151.78 236.819v550.362c0 75.834 61.867 137.701 137.701 137.701h444.814c75.834 0 137.701-61.867 137.701-137.701v-89.139c0-15.078-12.195-27.273-27.273-27.273s-27.273 12.195-27.273 27.273v89.139c0 45.899-37.474 83.373-83.373 83.373h-444.59c-45.899 0-83.373-37.474-83.373-83.373v-550.362c0-45.899 37.474-83.373 83.373-83.373h444.814c45.899 0 83.373 37.474 83.373 83.373v89.139c0 15.078 12.195 27.273 27.273 27.273s27.273-12.195 27.273-27.273v-89.139c0-75.834-61.867-137.701-137.701-137.701h-445.034c-75.834 0-137.701 61.643-137.701 137.701z"></path>
</svg>
