<!-- Generated by IcoMoon.io -->
<svg version="1.1" xmlns="http://www.w3.org/2000/svg" width="1024" height="1024" viewBox="0 0 1024 1024">
<title>Профіль</title>
<g id="icomoon-ignore">
</g>
<path d="M85.333 512c0-235.642 191.025-426.667 426.667-426.667 235.639 0 426.667 191.025 426.667 426.667 0 235.639-191.027 426.667-426.667 426.667-235.642 0-426.667-191.027-426.667-426.667zM512 128c-212.077 0-384 171.923-384 384 0 142.135 77.222 266.231 192 332.629v-216.009c0-77.474 45.885-144.23 111.962-174.575-38.129-25.737-63.201-69.344-63.201-118.808 0-79.108 64.131-143.238 143.24-143.238s143.236 64.13 143.236 143.238c0 49.463-25.071 93.071-63.202 118.808 66.078 30.345 111.966 97.101 111.966 174.575v216.009c114.778-66.398 192-190.494 192-332.629 0-212.077-171.921-384-384-384zM661.333 865.882v-237.261c0-82.475-66.859-149.333-149.333-149.333s-149.333 66.859-149.333 149.333v237.261c45.905 19.396 96.367 30.118 149.333 30.118s103.428-10.722 149.333-30.118zM512 234.667c-55.543 0-100.573 45.027-100.573 100.571s45.030 100.572 100.573 100.572c55.543 0 100.57-45.028 100.57-100.572s-45.026-100.571-100.57-100.571z"></path>
</svg>
