<!-- Generated by IcoMoon.io -->
<svg version="1.1" xmlns="http://www.w3.org/2000/svg" width="32" height="32" viewBox="0 0 32 32">
<title>Управління портфелем</title>
<path d="M4.335 24.538l9.295 5.277c1.594 0.911 3.121 0.924 4.741 0l9.295-5.277c1.246-0.71 1.928-1.433 1.928-3.375v-10.42c0-1.888-0.696-2.571-1.835-3.228l-9.322-5.304c-1.661-0.951-3.254-0.938-4.875 0l-9.321 5.304c-1.138 0.656-1.835 1.339-1.835 3.228v10.42c0 1.942 0.683 2.665 1.929 3.375zM5.594 22.663c-0.763-0.429-1.018-0.844-1.018-1.567v-10.259c0-0.67 0.268-1.058 0.938-1.446l9-5.156c1.018-0.576 1.929-0.603 2.973 0l9 5.156c0.67 0.388 0.938 0.777 0.938 1.446v10.259c0 0.723-0.255 1.138-1.018 1.567l-8.92 5.076c-1.071 0.603-1.942 0.589-2.973 0z"></path>
</svg>
