<?xml version="1.0" standalone="no"?>
<svg xmlns:xlink="http://www.w3.org/1999/xlink" version="1.1" xmlns="http://www.w3.org/2000/svg" id="QRCodeGenerate" class="img-fluid mw-75" data-copyright="my-qrcode.net" data-modulecount="49" data-defaultsize="510" data-defaultclass="img-fluid mw-75" data-text="https://apps.apple.com/ru/app/intelinvest-%D1%83%D1%87%D0%B5%D1%82-%D0%B8%D0%BD%D0%B2%D0%B5%D1%81%D1%82%D0%B8%D1%86%D0%B8%D0%B9/id1422478197" data-color="rgb(0, 0, 0)" data-backcolor="rgb(255, 255, 255)" data-typeicon="none" data-framesize="none" data-framewidth="0" data-titlelocation="none" data-titlefont="sans-serif" data-titletext="" data-typenumber="0" data-errorcorrectionlevel="M" data-mode="Byte" data-mb="UTF-8" width="510px" height="510px" x="0px" y="0px" viewBox="0 0 510 510" preserveAspectRatio="xMinYMin meet"><rect width="100%" height="100%" fill="rgb(255, 255, 255)" x="0" y="0"/><path d="M10,10l10,0 0,10 -10,0 0,-10z M20,10l10,0 0,10 -10,0 0,-10z M30,10l10,0 0,10 -10,0 0,-10z M40,10l10,0 0,10 -10,0 0,-10z M50,10l10,0 0,10 -10,0 0,-10z M60,10l10,0 0,10 -10,0 0,-10z M70,10l10,0 0,10 -10,0 0,-10z M90,10l10,0 0,10 -10,0 0,-10z M100,10l10,0 0,10 -10,0 0,-10z M130,10l10,0 0,10 -10,0 0,-10z M140,10l10,0 0,10 -10,0 0,-10z M160,10l10,0 0,10 -10,0 0,-10z M170,10l10,0 0,10 -10,0 0,-10z M180,10l10,0 0,10 -10,0 0,-10z M190,10l10,0 0,10 -10,0 0,-10z M200,10l10,0 0,10 -10,0 0,-10z M210,10l10,0 0,10 -10,0 0,-10z M310,10l10,0 0,10 -10,0 0,-10z M320,10l10,0 0,10 -10,0 0,-10z M330,10l10,0 0,10 -10,0 0,-10z M340,10l10,0 0,10 -10,0 0,-10z M370,10l10,0 0,10 -10,0 0,-10z M410,10l10,0 0,10 -10,0 0,-10z M430,10l10,0 0,10 -10,0 0,-10z M440,10l10,0 0,10 -10,0 0,-10z M450,10l10,0 0,10 -10,0 0,-10z M460,10l10,0 0,10 -10,0 0,-10z M470,10l10,0 0,10 -10,0 0,-10z M480,10l10,0 0,10 -10,0 0,-10z M490,10l10,0 0,10 -10,0 0,-10z M10,20l10,0 0,10 -10,0 0,-10z M70,20l10,0 0,10 -10,0 0,-10z M90,20l10,0 0,10 -10,0 0,-10z M100,20l10,0 0,10 -10,0 0,-10z M110,20l10,0 0,10 -10,0 0,-10z M160,20l10,0 0,10 -10,0 0,-10z M210,20l10,0 0,10 -10,0 0,-10z M220,20l10,0 0,10 -10,0 0,-10z M230,20l10,0 0,10 -10,0 0,-10z M250,20l10,0 0,10 -10,0 0,-10z M260,20l10,0 0,10 -10,0 0,-10z M270,20l10,0 0,10 -10,0 0,-10z M310,20l10,0 0,10 -10,0 0,-10z M320,20l10,0 0,10 -10,0 0,-10z M330,20l10,0 0,10 -10,0 0,-10z M340,20l10,0 0,10 -10,0 0,-10z M350,20l10,0 0,10 -10,0 0,-10z M390,20l10,0 0,10 -10,0 0,-10z M400,20l10,0 0,10 -10,0 0,-10z M410,20l10,0 0,10 -10,0 0,-10z M430,20l10,0 0,10 -10,0 0,-10z M490,20l10,0 0,10 -10,0 0,-10z M10,30l10,0 0,10 -10,0 0,-10z M30,30l10,0 0,10 -10,0 0,-10z M40,30l10,0 0,10 -10,0 0,-10z M50,30l10,0 0,10 -10,0 0,-10z M70,30l10,0 0,10 -10,0 0,-10z M120,30l10,0 0,10 -10,0 0,-10z M160,30l10,0 0,10 -10,0 0,-10z M180,30l10,0 0,10 -10,0 0,-10z M200,30l10,0 0,10 -10,0 0,-10z M230,30l10,0 0,10 -10,0 0,-10z M240,30l10,0 0,10 -10,0 0,-10z M260,30l10,0 0,10 -10,0 0,-10z M300,30l10,0 0,10 -10,0 0,-10z M310,30l10,0 0,10 -10,0 0,-10z M320,30l10,0 0,10 -10,0 0,-10z M330,30l10,0 0,10 -10,0 0,-10z M350,30l10,0 0,10 -10,0 0,-10z M370,30l10,0 0,10 -10,0 0,-10z M380,30l10,0 0,10 -10,0 0,-10z M400,30l10,0 0,10 -10,0 0,-10z M410,30l10,0 0,10 -10,0 0,-10z M430,30l10,0 0,10 -10,0 0,-10z M450,30l10,0 0,10 -10,0 0,-10z M460,30l10,0 0,10 -10,0 0,-10z M470,30l10,0 0,10 -10,0 0,-10z M490,30l10,0 0,10 -10,0 0,-10z M10,40l10,0 0,10 -10,0 0,-10z M30,40l10,0 0,10 -10,0 0,-10z M40,40l10,0 0,10 -10,0 0,-10z M50,40l10,0 0,10 -10,0 0,-10z M70,40l10,0 0,10 -10,0 0,-10z M90,40l10,0 0,10 -10,0 0,-10z M100,40l10,0 0,10 -10,0 0,-10z M110,40l10,0 0,10 -10,0 0,-10z M130,40l10,0 0,10 -10,0 0,-10z M140,40l10,0 0,10 -10,0 0,-10z M190,40l10,0 0,10 -10,0 0,-10z M200,40l10,0 0,10 -10,0 0,-10z M220,40l10,0 0,10 -10,0 0,-10z M250,40l10,0 0,10 -10,0 0,-10z M280,40l10,0 0,10 -10,0 0,-10z M300,40l10,0 0,10 -10,0 0,-10z M310,40l10,0 0,10 -10,0 0,-10z M340,40l10,0 0,10 -10,0 0,-10z M370,40l10,0 0,10 -10,0 0,-10z M380,40l10,0 0,10 -10,0 0,-10z M400,40l10,0 0,10 -10,0 0,-10z M430,40l10,0 0,10 -10,0 0,-10z M450,40l10,0 0,10 -10,0 0,-10z M460,40l10,0 0,10 -10,0 0,-10z M470,40l10,0 0,10 -10,0 0,-10z M490,40l10,0 0,10 -10,0 0,-10z M10,50l10,0 0,10 -10,0 0,-10z M30,50l10,0 0,10 -10,0 0,-10z M40,50l10,0 0,10 -10,0 0,-10z M50,50l10,0 0,10 -10,0 0,-10z M70,50l10,0 0,10 -10,0 0,-10z M110,50l10,0 0,10 -10,0 0,-10z M120,50l10,0 0,10 -10,0 0,-10z M130,50l10,0 0,10 -10,0 0,-10z M150,50l10,0 0,10 -10,0 0,-10z M170,50l10,0 0,10 -10,0 0,-10z M210,50l10,0 0,10 -10,0 0,-10z M230,50l10,0 0,10 -10,0 0,-10z M240,50l10,0 0,10 -10,0 0,-10z M250,50l10,0 0,10 -10,0 0,-10z M260,50l10,0 0,10 -10,0 0,-10z M270,50l10,0 0,10 -10,0 0,-10z M290,50l10,0 0,10 -10,0 0,-10z M300,50l10,0 0,10 -10,0 0,-10z M320,50l10,0 0,10 -10,0 0,-10z M330,50l10,0 0,10 -10,0 0,-10z M340,50l10,0 0,10 -10,0 0,-10z M380,50l10,0 0,10 -10,0 0,-10z M430,50l10,0 0,10 -10,0 0,-10z M450,50l10,0 0,10 -10,0 0,-10z M460,50l10,0 0,10 -10,0 0,-10z M470,50l10,0 0,10 -10,0 0,-10z M490,50l10,0 0,10 -10,0 0,-10z M10,60l10,0 0,10 -10,0 0,-10z M70,60l10,0 0,10 -10,0 0,-10z M120,60l10,0 0,10 -10,0 0,-10z M130,60l10,0 0,10 -10,0 0,-10z M150,60l10,0 0,10 -10,0 0,-10z M180,60l10,0 0,10 -10,0 0,-10z M190,60l10,0 0,10 -10,0 0,-10z M230,60l10,0 0,10 -10,0 0,-10z M270,60l10,0 0,10 -10,0 0,-10z M290,60l10,0 0,10 -10,0 0,-10z M310,60l10,0 0,10 -10,0 0,-10z M320,60l10,0 0,10 -10,0 0,-10z M360,60l10,0 0,10 -10,0 0,-10z M390,60l10,0 0,10 -10,0 0,-10z M430,60l10,0 0,10 -10,0 0,-10z M490,60l10,0 0,10 -10,0 0,-10z M10,70l10,0 0,10 -10,0 0,-10z M20,70l10,0 0,10 -10,0 0,-10z M30,70l10,0 0,10 -10,0 0,-10z M40,70l10,0 0,10 -10,0 0,-10z M50,70l10,0 0,10 -10,0 0,-10z M60,70l10,0 0,10 -10,0 0,-10z M70,70l10,0 0,10 -10,0 0,-10z M90,70l10,0 0,10 -10,0 0,-10z M110,70l10,0 0,10 -10,0 0,-10z M130,70l10,0 0,10 -10,0 0,-10z M150,70l10,0 0,10 -10,0 0,-10z M170,70l10,0 0,10 -10,0 0,-10z M190,70l10,0 0,10 -10,0 0,-10z M210,70l10,0 0,10 -10,0 0,-10z M230,70l10,0 0,10 -10,0 0,-10z M250,70l10,0 0,10 -10,0 0,-10z M270,70l10,0 0,10 -10,0 0,-10z M290,70l10,0 0,10 -10,0 0,-10z M310,70l10,0 0,10 -10,0 0,-10z M330,70l10,0 0,10 -10,0 0,-10z M350,70l10,0 0,10 -10,0 0,-10z M370,70l10,0 0,10 -10,0 0,-10z M390,70l10,0 0,10 -10,0 0,-10z M410,70l10,0 0,10 -10,0 0,-10z M430,70l10,0 0,10 -10,0 0,-10z M440,70l10,0 0,10 -10,0 0,-10z M450,70l10,0 0,10 -10,0 0,-10z M460,70l10,0 0,10 -10,0 0,-10z M470,70l10,0 0,10 -10,0 0,-10z M480,70l10,0 0,10 -10,0 0,-10z M490,70l10,0 0,10 -10,0 0,-10z M90,80l10,0 0,10 -10,0 0,-10z M110,80l10,0 0,10 -10,0 0,-10z M130,80l10,0 0,10 -10,0 0,-10z M160,80l10,0 0,10 -10,0 0,-10z M190,80l10,0 0,10 -10,0 0,-10z M210,80l10,0 0,10 -10,0 0,-10z M220,80l10,0 0,10 -10,0 0,-10z M230,80l10,0 0,10 -10,0 0,-10z M270,80l10,0 0,10 -10,0 0,-10z M280,80l10,0 0,10 -10,0 0,-10z M290,80l10,0 0,10 -10,0 0,-10z M320,80l10,0 0,10 -10,0 0,-10z M340,80l10,0 0,10 -10,0 0,-10z M370,80l10,0 0,10 -10,0 0,-10z M390,80l10,0 0,10 -10,0 0,-10z M10,90l10,0 0,10 -10,0 0,-10z M30,90l10,0 0,10 -10,0 0,-10z M40,90l10,0 0,10 -10,0 0,-10z M60,90l10,0 0,10 -10,0 0,-10z M70,90l10,0 0,10 -10,0 0,-10z M80,90l10,0 0,10 -10,0 0,-10z M100,90l10,0 0,10 -10,0 0,-10z M140,90l10,0 0,10 -10,0 0,-10z M160,90l10,0 0,10 -10,0 0,-10z M170,90l10,0 0,10 -10,0 0,-10z M190,90l10,0 0,10 -10,0 0,-10z M210,90l10,0 0,10 -10,0 0,-10z M230,90l10,0 0,10 -10,0 0,-10z M240,90l10,0 0,10 -10,0 0,-10z M250,90l10,0 0,10 -10,0 0,-10z M260,90l10,0 0,10 -10,0 0,-10z M270,90l10,0 0,10 -10,0 0,-10z M290,90l10,0 0,10 -10,0 0,-10z M300,90l10,0 0,10 -10,0 0,-10z M320,90l10,0 0,10 -10,0 0,-10z M340,90l10,0 0,10 -10,0 0,-10z M390,90l10,0 0,10 -10,0 0,-10z M430,90l10,0 0,10 -10,0 0,-10z M460,90l10,0 0,10 -10,0 0,-10z M480,90l10,0 0,10 -10,0 0,-10z M490,90l10,0 0,10 -10,0 0,-10z M30,100l10,0 0,10 -10,0 0,-10z M40,100l10,0 0,10 -10,0 0,-10z M90,100l10,0 0,10 -10,0 0,-10z M100,100l10,0 0,10 -10,0 0,-10z M130,100l10,0 0,10 -10,0 0,-10z M140,100l10,0 0,10 -10,0 0,-10z M160,100l10,0 0,10 -10,0 0,-10z M180,100l10,0 0,10 -10,0 0,-10z M220,100l10,0 0,10 -10,0 0,-10z M240,100l10,0 0,10 -10,0 0,-10z M250,100l10,0 0,10 -10,0 0,-10z M260,100l10,0 0,10 -10,0 0,-10z M280,100l10,0 0,10 -10,0 0,-10z M310,100l10,0 0,10 -10,0 0,-10z M330,100l10,0 0,10 -10,0 0,-10z M340,100l10,0 0,10 -10,0 0,-10z M370,100l10,0 0,10 -10,0 0,-10z M400,100l10,0 0,10 -10,0 0,-10z M430,100l10,0 0,10 -10,0 0,-10z M450,100l10,0 0,10 -10,0 0,-10z M480,100l10,0 0,10 -10,0 0,-10z M10,110l10,0 0,10 -10,0 0,-10z M60,110l10,0 0,10 -10,0 0,-10z M70,110l10,0 0,10 -10,0 0,-10z M80,110l10,0 0,10 -10,0 0,-10z M90,110l10,0 0,10 -10,0 0,-10z M100,110l10,0 0,10 -10,0 0,-10z M120,110l10,0 0,10 -10,0 0,-10z M130,110l10,0 0,10 -10,0 0,-10z M160,110l10,0 0,10 -10,0 0,-10z M170,110l10,0 0,10 -10,0 0,-10z M180,110l10,0 0,10 -10,0 0,-10z M190,110l10,0 0,10 -10,0 0,-10z M200,110l10,0 0,10 -10,0 0,-10z M210,110l10,0 0,10 -10,0 0,-10z M230,110l10,0 0,10 -10,0 0,-10z M240,110l10,0 0,10 -10,0 0,-10z M260,110l10,0 0,10 -10,0 0,-10z M290,110l10,0 0,10 -10,0 0,-10z M300,110l10,0 0,10 -10,0 0,-10z M310,110l10,0 0,10 -10,0 0,-10z M330,110l10,0 0,10 -10,0 0,-10z M350,110l10,0 0,10 -10,0 0,-10z M360,110l10,0 0,10 -10,0 0,-10z M370,110l10,0 0,10 -10,0 0,-10z M430,110l10,0 0,10 -10,0 0,-10z M450,110l10,0 0,10 -10,0 0,-10z M460,110l10,0 0,10 -10,0 0,-10z M10,120l10,0 0,10 -10,0 0,-10z M30,120l10,0 0,10 -10,0 0,-10z M40,120l10,0 0,10 -10,0 0,-10z M90,120l10,0 0,10 -10,0 0,-10z M100,120l10,0 0,10 -10,0 0,-10z M120,120l10,0 0,10 -10,0 0,-10z M140,120l10,0 0,10 -10,0 0,-10z M150,120l10,0 0,10 -10,0 0,-10z M160,120l10,0 0,10 -10,0 0,-10z M180,120l10,0 0,10 -10,0 0,-10z M190,120l10,0 0,10 -10,0 0,-10z M230,120l10,0 0,10 -10,0 0,-10z M260,120l10,0 0,10 -10,0 0,-10z M280,120l10,0 0,10 -10,0 0,-10z M300,120l10,0 0,10 -10,0 0,-10z M320,120l10,0 0,10 -10,0 0,-10z M330,120l10,0 0,10 -10,0 0,-10z M340,120l10,0 0,10 -10,0 0,-10z M350,120l10,0 0,10 -10,0 0,-10z M360,120l10,0 0,10 -10,0 0,-10z M370,120l10,0 0,10 -10,0 0,-10z M410,120l10,0 0,10 -10,0 0,-10z M430,120l10,0 0,10 -10,0 0,-10z M450,120l10,0 0,10 -10,0 0,-10z M460,120l10,0 0,10 -10,0 0,-10z M470,120l10,0 0,10 -10,0 0,-10z M480,120l10,0 0,10 -10,0 0,-10z M20,130l10,0 0,10 -10,0 0,-10z M50,130l10,0 0,10 -10,0 0,-10z M60,130l10,0 0,10 -10,0 0,-10z M70,130l10,0 0,10 -10,0 0,-10z M90,130l10,0 0,10 -10,0 0,-10z M120,130l10,0 0,10 -10,0 0,-10z M130,130l10,0 0,10 -10,0 0,-10z M170,130l10,0 0,10 -10,0 0,-10z M180,130l10,0 0,10 -10,0 0,-10z M190,130l10,0 0,10 -10,0 0,-10z M230,130l10,0 0,10 -10,0 0,-10z M240,130l10,0 0,10 -10,0 0,-10z M250,130l10,0 0,10 -10,0 0,-10z M270,130l10,0 0,10 -10,0 0,-10z M300,130l10,0 0,10 -10,0 0,-10z M310,130l10,0 0,10 -10,0 0,-10z M320,130l10,0 0,10 -10,0 0,-10z M360,130l10,0 0,10 -10,0 0,-10z M370,130l10,0 0,10 -10,0 0,-10z M380,130l10,0 0,10 -10,0 0,-10z M400,130l10,0 0,10 -10,0 0,-10z M410,130l10,0 0,10 -10,0 0,-10z M460,130l10,0 0,10 -10,0 0,-10z M480,130l10,0 0,10 -10,0 0,-10z M490,130l10,0 0,10 -10,0 0,-10z M10,140l10,0 0,10 -10,0 0,-10z M20,140l10,0 0,10 -10,0 0,-10z M30,140l10,0 0,10 -10,0 0,-10z M40,140l10,0 0,10 -10,0 0,-10z M50,140l10,0 0,10 -10,0 0,-10z M100,140l10,0 0,10 -10,0 0,-10z M120,140l10,0 0,10 -10,0 0,-10z M140,140l10,0 0,10 -10,0 0,-10z M150,140l10,0 0,10 -10,0 0,-10z M160,140l10,0 0,10 -10,0 0,-10z M170,140l10,0 0,10 -10,0 0,-10z M190,140l10,0 0,10 -10,0 0,-10z M200,140l10,0 0,10 -10,0 0,-10z M220,140l10,0 0,10 -10,0 0,-10z M230,140l10,0 0,10 -10,0 0,-10z M270,140l10,0 0,10 -10,0 0,-10z M280,140l10,0 0,10 -10,0 0,-10z M320,140l10,0 0,10 -10,0 0,-10z M340,140l10,0 0,10 -10,0 0,-10z M360,140l10,0 0,10 -10,0 0,-10z M380,140l10,0 0,10 -10,0 0,-10z M390,140l10,0 0,10 -10,0 0,-10z M420,140l10,0 0,10 -10,0 0,-10z M450,140l10,0 0,10 -10,0 0,-10z M460,140l10,0 0,10 -10,0 0,-10z M490,140l10,0 0,10 -10,0 0,-10z M10,150l10,0 0,10 -10,0 0,-10z M30,150l10,0 0,10 -10,0 0,-10z M40,150l10,0 0,10 -10,0 0,-10z M60,150l10,0 0,10 -10,0 0,-10z M70,150l10,0 0,10 -10,0 0,-10z M110,150l10,0 0,10 -10,0 0,-10z M150,150l10,0 0,10 -10,0 0,-10z M170,150l10,0 0,10 -10,0 0,-10z M200,150l10,0 0,10 -10,0 0,-10z M210,150l10,0 0,10 -10,0 0,-10z M240,150l10,0 0,10 -10,0 0,-10z M260,150l10,0 0,10 -10,0 0,-10z M270,150l10,0 0,10 -10,0 0,-10z M290,150l10,0 0,10 -10,0 0,-10z M330,150l10,0 0,10 -10,0 0,-10z M350,150l10,0 0,10 -10,0 0,-10z M380,150l10,0 0,10 -10,0 0,-10z M430,150l10,0 0,10 -10,0 0,-10z M460,150l10,0 0,10 -10,0 0,-10z M470,150l10,0 0,10 -10,0 0,-10z M480,150l10,0 0,10 -10,0 0,-10z M20,160l10,0 0,10 -10,0 0,-10z M30,160l10,0 0,10 -10,0 0,-10z M40,160l10,0 0,10 -10,0 0,-10z M50,160l10,0 0,10 -10,0 0,-10z M60,160l10,0 0,10 -10,0 0,-10z M80,160l10,0 0,10 -10,0 0,-10z M90,160l10,0 0,10 -10,0 0,-10z M100,160l10,0 0,10 -10,0 0,-10z M110,160l10,0 0,10 -10,0 0,-10z M140,160l10,0 0,10 -10,0 0,-10z M180,160l10,0 0,10 -10,0 0,-10z M200,160l10,0 0,10 -10,0 0,-10z M210,160l10,0 0,10 -10,0 0,-10z M230,160l10,0 0,10 -10,0 0,-10z M240,160l10,0 0,10 -10,0 0,-10z M260,160l10,0 0,10 -10,0 0,-10z M280,160l10,0 0,10 -10,0 0,-10z M320,160l10,0 0,10 -10,0 0,-10z M330,160l10,0 0,10 -10,0 0,-10z M340,160l10,0 0,10 -10,0 0,-10z M380,160l10,0 0,10 -10,0 0,-10z M400,160l10,0 0,10 -10,0 0,-10z M420,160l10,0 0,10 -10,0 0,-10z M430,160l10,0 0,10 -10,0 0,-10z M490,160l10,0 0,10 -10,0 0,-10z M10,170l10,0 0,10 -10,0 0,-10z M40,170l10,0 0,10 -10,0 0,-10z M50,170l10,0 0,10 -10,0 0,-10z M60,170l10,0 0,10 -10,0 0,-10z M70,170l10,0 0,10 -10,0 0,-10z M80,170l10,0 0,10 -10,0 0,-10z M90,170l10,0 0,10 -10,0 0,-10z M100,170l10,0 0,10 -10,0 0,-10z M110,170l10,0 0,10 -10,0 0,-10z M140,170l10,0 0,10 -10,0 0,-10z M160,170l10,0 0,10 -10,0 0,-10z M180,170l10,0 0,10 -10,0 0,-10z M190,170l10,0 0,10 -10,0 0,-10z M240,170l10,0 0,10 -10,0 0,-10z M260,170l10,0 0,10 -10,0 0,-10z M270,170l10,0 0,10 -10,0 0,-10z M280,170l10,0 0,10 -10,0 0,-10z M290,170l10,0 0,10 -10,0 0,-10z M300,170l10,0 0,10 -10,0 0,-10z M330,170l10,0 0,10 -10,0 0,-10z M340,170l10,0 0,10 -10,0 0,-10z M380,170l10,0 0,10 -10,0 0,-10z M390,170l10,0 0,10 -10,0 0,-10z M400,170l10,0 0,10 -10,0 0,-10z M410,170l10,0 0,10 -10,0 0,-10z M420,170l10,0 0,10 -10,0 0,-10z M440,170l10,0 0,10 -10,0 0,-10z M450,170l10,0 0,10 -10,0 0,-10z M480,170l10,0 0,10 -10,0 0,-10z M490,170l10,0 0,10 -10,0 0,-10z M10,180l10,0 0,10 -10,0 0,-10z M40,180l10,0 0,10 -10,0 0,-10z M50,180l10,0 0,10 -10,0 0,-10z M80,180l10,0 0,10 -10,0 0,-10z M90,180l10,0 0,10 -10,0 0,-10z M120,180l10,0 0,10 -10,0 0,-10z M140,180l10,0 0,10 -10,0 0,-10z M150,180l10,0 0,10 -10,0 0,-10z M200,180l10,0 0,10 -10,0 0,-10z M220,180l10,0 0,10 -10,0 0,-10z M230,180l10,0 0,10 -10,0 0,-10z M320,180l10,0 0,10 -10,0 0,-10z M350,180l10,0 0,10 -10,0 0,-10z M360,180l10,0 0,10 -10,0 0,-10z M410,180l10,0 0,10 -10,0 0,-10z M460,180l10,0 0,10 -10,0 0,-10z M470,180l10,0 0,10 -10,0 0,-10z M490,180l10,0 0,10 -10,0 0,-10z M10,190l10,0 0,10 -10,0 0,-10z M70,190l10,0 0,10 -10,0 0,-10z M130,190l10,0 0,10 -10,0 0,-10z M140,190l10,0 0,10 -10,0 0,-10z M150,190l10,0 0,10 -10,0 0,-10z M160,190l10,0 0,10 -10,0 0,-10z M170,190l10,0 0,10 -10,0 0,-10z M180,190l10,0 0,10 -10,0 0,-10z M190,190l10,0 0,10 -10,0 0,-10z M200,190l10,0 0,10 -10,0 0,-10z M220,190l10,0 0,10 -10,0 0,-10z M240,190l10,0 0,10 -10,0 0,-10z M250,190l10,0 0,10 -10,0 0,-10z M290,190l10,0 0,10 -10,0 0,-10z M300,190l10,0 0,10 -10,0 0,-10z M320,190l10,0 0,10 -10,0 0,-10z M350,190l10,0 0,10 -10,0 0,-10z M400,190l10,0 0,10 -10,0 0,-10z M420,190l10,0 0,10 -10,0 0,-10z M440,190l10,0 0,10 -10,0 0,-10z M460,190l10,0 0,10 -10,0 0,-10z M490,190l10,0 0,10 -10,0 0,-10z M30,200l10,0 0,10 -10,0 0,-10z M60,200l10,0 0,10 -10,0 0,-10z M80,200l10,0 0,10 -10,0 0,-10z M100,200l10,0 0,10 -10,0 0,-10z M120,200l10,0 0,10 -10,0 0,-10z M130,200l10,0 0,10 -10,0 0,-10z M140,200l10,0 0,10 -10,0 0,-10z M160,200l10,0 0,10 -10,0 0,-10z M170,200l10,0 0,10 -10,0 0,-10z M210,200l10,0 0,10 -10,0 0,-10z M220,200l10,0 0,10 -10,0 0,-10z M240,200l10,0 0,10 -10,0 0,-10z M250,200l10,0 0,10 -10,0 0,-10z M260,200l10,0 0,10 -10,0 0,-10z M280,200l10,0 0,10 -10,0 0,-10z M290,200l10,0 0,10 -10,0 0,-10z M310,200l10,0 0,10 -10,0 0,-10z M320,200l10,0 0,10 -10,0 0,-10z M340,200l10,0 0,10 -10,0 0,-10z M350,200l10,0 0,10 -10,0 0,-10z M370,200l10,0 0,10 -10,0 0,-10z M390,200l10,0 0,10 -10,0 0,-10z M410,200l10,0 0,10 -10,0 0,-10z M420,200l10,0 0,10 -10,0 0,-10z M440,200l10,0 0,10 -10,0 0,-10z M460,200l10,0 0,10 -10,0 0,-10z M480,200l10,0 0,10 -10,0 0,-10z M490,200l10,0 0,10 -10,0 0,-10z M20,210l10,0 0,10 -10,0 0,-10z M30,210l10,0 0,10 -10,0 0,-10z M50,210l10,0 0,10 -10,0 0,-10z M70,210l10,0 0,10 -10,0 0,-10z M90,210l10,0 0,10 -10,0 0,-10z M100,210l10,0 0,10 -10,0 0,-10z M180,210l10,0 0,10 -10,0 0,-10z M190,210l10,0 0,10 -10,0 0,-10z M200,210l10,0 0,10 -10,0 0,-10z M240,210l10,0 0,10 -10,0 0,-10z M260,210l10,0 0,10 -10,0 0,-10z M270,210l10,0 0,10 -10,0 0,-10z M290,210l10,0 0,10 -10,0 0,-10z M300,210l10,0 0,10 -10,0 0,-10z M310,210l10,0 0,10 -10,0 0,-10z M320,210l10,0 0,10 -10,0 0,-10z M350,210l10,0 0,10 -10,0 0,-10z M380,210l10,0 0,10 -10,0 0,-10z M400,210l10,0 0,10 -10,0 0,-10z M440,210l10,0 0,10 -10,0 0,-10z M460,210l10,0 0,10 -10,0 0,-10z M480,210l10,0 0,10 -10,0 0,-10z M10,220l10,0 0,10 -10,0 0,-10z M30,220l10,0 0,10 -10,0 0,-10z M50,220l10,0 0,10 -10,0 0,-10z M90,220l10,0 0,10 -10,0 0,-10z M140,220l10,0 0,10 -10,0 0,-10z M160,220l10,0 0,10 -10,0 0,-10z M170,220l10,0 0,10 -10,0 0,-10z M190,220l10,0 0,10 -10,0 0,-10z M200,220l10,0 0,10 -10,0 0,-10z M240,220l10,0 0,10 -10,0 0,-10z M250,220l10,0 0,10 -10,0 0,-10z M260,220l10,0 0,10 -10,0 0,-10z M270,220l10,0 0,10 -10,0 0,-10z M280,220l10,0 0,10 -10,0 0,-10z M300,220l10,0 0,10 -10,0 0,-10z M310,220l10,0 0,10 -10,0 0,-10z M380,220l10,0 0,10 -10,0 0,-10z M430,220l10,0 0,10 -10,0 0,-10z M440,220l10,0 0,10 -10,0 0,-10z M450,220l10,0 0,10 -10,0 0,-10z M460,220l10,0 0,10 -10,0 0,-10z M10,230l10,0 0,10 -10,0 0,-10z M20,230l10,0 0,10 -10,0 0,-10z M40,230l10,0 0,10 -10,0 0,-10z M50,230l10,0 0,10 -10,0 0,-10z M60,230l10,0 0,10 -10,0 0,-10z M70,230l10,0 0,10 -10,0 0,-10z M80,230l10,0 0,10 -10,0 0,-10z M90,230l10,0 0,10 -10,0 0,-10z M100,230l10,0 0,10 -10,0 0,-10z M120,230l10,0 0,10 -10,0 0,-10z M130,230l10,0 0,10 -10,0 0,-10z M140,230l10,0 0,10 -10,0 0,-10z M150,230l10,0 0,10 -10,0 0,-10z M170,230l10,0 0,10 -10,0 0,-10z M190,230l10,0 0,10 -10,0 0,-10z M200,230l10,0 0,10 -10,0 0,-10z M210,230l10,0 0,10 -10,0 0,-10z M230,230l10,0 0,10 -10,0 0,-10z M240,230l10,0 0,10 -10,0 0,-10z M250,230l10,0 0,10 -10,0 0,-10z M260,230l10,0 0,10 -10,0 0,-10z M270,230l10,0 0,10 -10,0 0,-10z M290,230l10,0 0,10 -10,0 0,-10z M310,230l10,0 0,10 -10,0 0,-10z M350,230l10,0 0,10 -10,0 0,-10z M360,230l10,0 0,10 -10,0 0,-10z M380,230l10,0 0,10 -10,0 0,-10z M400,230l10,0 0,10 -10,0 0,-10z M410,230l10,0 0,10 -10,0 0,-10z M420,230l10,0 0,10 -10,0 0,-10z M430,230l10,0 0,10 -10,0 0,-10z M440,230l10,0 0,10 -10,0 0,-10z M450,230l10,0 0,10 -10,0 0,-10z M460,230l10,0 0,10 -10,0 0,-10z M470,230l10,0 0,10 -10,0 0,-10z M480,230l10,0 0,10 -10,0 0,-10z M20,240l10,0 0,10 -10,0 0,-10z M30,240l10,0 0,10 -10,0 0,-10z M40,240l10,0 0,10 -10,0 0,-10z M50,240l10,0 0,10 -10,0 0,-10z M90,240l10,0 0,10 -10,0 0,-10z M100,240l10,0 0,10 -10,0 0,-10z M120,240l10,0 0,10 -10,0 0,-10z M130,240l10,0 0,10 -10,0 0,-10z M170,240l10,0 0,10 -10,0 0,-10z M190,240l10,0 0,10 -10,0 0,-10z M220,240l10,0 0,10 -10,0 0,-10z M230,240l10,0 0,10 -10,0 0,-10z M270,240l10,0 0,10 -10,0 0,-10z M280,240l10,0 0,10 -10,0 0,-10z M300,240l10,0 0,10 -10,0 0,-10z M320,240l10,0 0,10 -10,0 0,-10z M340,240l10,0 0,10 -10,0 0,-10z M350,240l10,0 0,10 -10,0 0,-10z M360,240l10,0 0,10 -10,0 0,-10z M370,240l10,0 0,10 -10,0 0,-10z M410,240l10,0 0,10 -10,0 0,-10z M450,240l10,0 0,10 -10,0 0,-10z M460,240l10,0 0,10 -10,0 0,-10z M470,240l10,0 0,10 -10,0 0,-10z M20,250l10,0 0,10 -10,0 0,-10z M50,250l10,0 0,10 -10,0 0,-10z M70,250l10,0 0,10 -10,0 0,-10z M90,250l10,0 0,10 -10,0 0,-10z M100,250l10,0 0,10 -10,0 0,-10z M110,250l10,0 0,10 -10,0 0,-10z M120,250l10,0 0,10 -10,0 0,-10z M130,250l10,0 0,10 -10,0 0,-10z M140,250l10,0 0,10 -10,0 0,-10z M150,250l10,0 0,10 -10,0 0,-10z M170,250l10,0 0,10 -10,0 0,-10z M210,250l10,0 0,10 -10,0 0,-10z M220,250l10,0 0,10 -10,0 0,-10z M230,250l10,0 0,10 -10,0 0,-10z M250,250l10,0 0,10 -10,0 0,-10z M270,250l10,0 0,10 -10,0 0,-10z M280,250l10,0 0,10 -10,0 0,-10z M300,250l10,0 0,10 -10,0 0,-10z M310,250l10,0 0,10 -10,0 0,-10z M320,250l10,0 0,10 -10,0 0,-10z M370,250l10,0 0,10 -10,0 0,-10z M380,250l10,0 0,10 -10,0 0,-10z M400,250l10,0 0,10 -10,0 0,-10z M410,250l10,0 0,10 -10,0 0,-10z M430,250l10,0 0,10 -10,0 0,-10z M450,250l10,0 0,10 -10,0 0,-10z M470,250l10,0 0,10 -10,0 0,-10z M490,250l10,0 0,10 -10,0 0,-10z M40,260l10,0 0,10 -10,0 0,-10z M50,260l10,0 0,10 -10,0 0,-10z M90,260l10,0 0,10 -10,0 0,-10z M110,260l10,0 0,10 -10,0 0,-10z M120,260l10,0 0,10 -10,0 0,-10z M130,260l10,0 0,10 -10,0 0,-10z M140,260l10,0 0,10 -10,0 0,-10z M170,260l10,0 0,10 -10,0 0,-10z M180,260l10,0 0,10 -10,0 0,-10z M200,260l10,0 0,10 -10,0 0,-10z M210,260l10,0 0,10 -10,0 0,-10z M220,260l10,0 0,10 -10,0 0,-10z M230,260l10,0 0,10 -10,0 0,-10z M270,260l10,0 0,10 -10,0 0,-10z M280,260l10,0 0,10 -10,0 0,-10z M320,260l10,0 0,10 -10,0 0,-10z M330,260l10,0 0,10 -10,0 0,-10z M340,260l10,0 0,10 -10,0 0,-10z M380,260l10,0 0,10 -10,0 0,-10z M390,260l10,0 0,10 -10,0 0,-10z M410,260l10,0 0,10 -10,0 0,-10z M450,260l10,0 0,10 -10,0 0,-10z M480,260l10,0 0,10 -10,0 0,-10z M490,260l10,0 0,10 -10,0 0,-10z M20,270l10,0 0,10 -10,0 0,-10z M40,270l10,0 0,10 -10,0 0,-10z M50,270l10,0 0,10 -10,0 0,-10z M60,270l10,0 0,10 -10,0 0,-10z M70,270l10,0 0,10 -10,0 0,-10z M80,270l10,0 0,10 -10,0 0,-10z M90,270l10,0 0,10 -10,0 0,-10z M110,270l10,0 0,10 -10,0 0,-10z M130,270l10,0 0,10 -10,0 0,-10z M150,270l10,0 0,10 -10,0 0,-10z M170,270l10,0 0,10 -10,0 0,-10z M230,270l10,0 0,10 -10,0 0,-10z M240,270l10,0 0,10 -10,0 0,-10z M250,270l10,0 0,10 -10,0 0,-10z M260,270l10,0 0,10 -10,0 0,-10z M270,270l10,0 0,10 -10,0 0,-10z M280,270l10,0 0,10 -10,0 0,-10z M290,270l10,0 0,10 -10,0 0,-10z M350,270l10,0 0,10 -10,0 0,-10z M360,270l10,0 0,10 -10,0 0,-10z M380,270l10,0 0,10 -10,0 0,-10z M400,270l10,0 0,10 -10,0 0,-10z M410,270l10,0 0,10 -10,0 0,-10z M420,270l10,0 0,10 -10,0 0,-10z M430,270l10,0 0,10 -10,0 0,-10z M440,270l10,0 0,10 -10,0 0,-10z M450,270l10,0 0,10 -10,0 0,-10z M480,270l10,0 0,10 -10,0 0,-10z M50,280l10,0 0,10 -10,0 0,-10z M90,280l10,0 0,10 -10,0 0,-10z M120,280l10,0 0,10 -10,0 0,-10z M130,280l10,0 0,10 -10,0 0,-10z M150,280l10,0 0,10 -10,0 0,-10z M170,280l10,0 0,10 -10,0 0,-10z M180,280l10,0 0,10 -10,0 0,-10z M210,280l10,0 0,10 -10,0 0,-10z M280,280l10,0 0,10 -10,0 0,-10z M290,280l10,0 0,10 -10,0 0,-10z M300,280l10,0 0,10 -10,0 0,-10z M310,280l10,0 0,10 -10,0 0,-10z M330,280l10,0 0,10 -10,0 0,-10z M360,280l10,0 0,10 -10,0 0,-10z M380,280l10,0 0,10 -10,0 0,-10z M20,290l10,0 0,10 -10,0 0,-10z M30,290l10,0 0,10 -10,0 0,-10z M70,290l10,0 0,10 -10,0 0,-10z M90,290l10,0 0,10 -10,0 0,-10z M120,290l10,0 0,10 -10,0 0,-10z M130,290l10,0 0,10 -10,0 0,-10z M150,290l10,0 0,10 -10,0 0,-10z M180,290l10,0 0,10 -10,0 0,-10z M200,290l10,0 0,10 -10,0 0,-10z M210,290l10,0 0,10 -10,0 0,-10z M240,290l10,0 0,10 -10,0 0,-10z M270,290l10,0 0,10 -10,0 0,-10z M280,290l10,0 0,10 -10,0 0,-10z M300,290l10,0 0,10 -10,0 0,-10z M320,290l10,0 0,10 -10,0 0,-10z M330,290l10,0 0,10 -10,0 0,-10z M390,290l10,0 0,10 -10,0 0,-10z M420,290l10,0 0,10 -10,0 0,-10z M430,290l10,0 0,10 -10,0 0,-10z M450,290l10,0 0,10 -10,0 0,-10z M10,300l10,0 0,10 -10,0 0,-10z M20,300l10,0 0,10 -10,0 0,-10z M40,300l10,0 0,10 -10,0 0,-10z M80,300l10,0 0,10 -10,0 0,-10z M90,300l10,0 0,10 -10,0 0,-10z M100,300l10,0 0,10 -10,0 0,-10z M110,300l10,0 0,10 -10,0 0,-10z M120,300l10,0 0,10 -10,0 0,-10z M170,300l10,0 0,10 -10,0 0,-10z M190,300l10,0 0,10 -10,0 0,-10z M200,300l10,0 0,10 -10,0 0,-10z M230,300l10,0 0,10 -10,0 0,-10z M240,300l10,0 0,10 -10,0 0,-10z M250,300l10,0 0,10 -10,0 0,-10z M260,300l10,0 0,10 -10,0 0,-10z M280,300l10,0 0,10 -10,0 0,-10z M330,300l10,0 0,10 -10,0 0,-10z M350,300l10,0 0,10 -10,0 0,-10z M360,300l10,0 0,10 -10,0 0,-10z M380,300l10,0 0,10 -10,0 0,-10z M460,300l10,0 0,10 -10,0 0,-10z M470,300l10,0 0,10 -10,0 0,-10z M490,300l10,0 0,10 -10,0 0,-10z M10,310l10,0 0,10 -10,0 0,-10z M20,310l10,0 0,10 -10,0 0,-10z M30,310l10,0 0,10 -10,0 0,-10z M50,310l10,0 0,10 -10,0 0,-10z M70,310l10,0 0,10 -10,0 0,-10z M100,310l10,0 0,10 -10,0 0,-10z M110,310l10,0 0,10 -10,0 0,-10z M150,310l10,0 0,10 -10,0 0,-10z M160,310l10,0 0,10 -10,0 0,-10z M170,310l10,0 0,10 -10,0 0,-10z M180,310l10,0 0,10 -10,0 0,-10z M190,310l10,0 0,10 -10,0 0,-10z M200,310l10,0 0,10 -10,0 0,-10z M290,310l10,0 0,10 -10,0 0,-10z M300,310l10,0 0,10 -10,0 0,-10z M350,310l10,0 0,10 -10,0 0,-10z M370,310l10,0 0,10 -10,0 0,-10z M380,310l10,0 0,10 -10,0 0,-10z M390,310l10,0 0,10 -10,0 0,-10z M400,310l10,0 0,10 -10,0 0,-10z M410,310l10,0 0,10 -10,0 0,-10z M430,310l10,0 0,10 -10,0 0,-10z M440,310l10,0 0,10 -10,0 0,-10z M460,310l10,0 0,10 -10,0 0,-10z M480,310l10,0 0,10 -10,0 0,-10z M490,310l10,0 0,10 -10,0 0,-10z M10,320l10,0 0,10 -10,0 0,-10z M40,320l10,0 0,10 -10,0 0,-10z M80,320l10,0 0,10 -10,0 0,-10z M90,320l10,0 0,10 -10,0 0,-10z M100,320l10,0 0,10 -10,0 0,-10z M150,320l10,0 0,10 -10,0 0,-10z M180,320l10,0 0,10 -10,0 0,-10z M210,320l10,0 0,10 -10,0 0,-10z M250,320l10,0 0,10 -10,0 0,-10z M300,320l10,0 0,10 -10,0 0,-10z M320,320l10,0 0,10 -10,0 0,-10z M340,320l10,0 0,10 -10,0 0,-10z M360,320l10,0 0,10 -10,0 0,-10z M370,320l10,0 0,10 -10,0 0,-10z M390,320l10,0 0,10 -10,0 0,-10z M400,320l10,0 0,10 -10,0 0,-10z M420,320l10,0 0,10 -10,0 0,-10z M430,320l10,0 0,10 -10,0 0,-10z M440,320l10,0 0,10 -10,0 0,-10z M450,320l10,0 0,10 -10,0 0,-10z M480,320l10,0 0,10 -10,0 0,-10z M10,330l10,0 0,10 -10,0 0,-10z M20,330l10,0 0,10 -10,0 0,-10z M30,330l10,0 0,10 -10,0 0,-10z M50,330l10,0 0,10 -10,0 0,-10z M70,330l10,0 0,10 -10,0 0,-10z M90,330l10,0 0,10 -10,0 0,-10z M100,330l10,0 0,10 -10,0 0,-10z M120,330l10,0 0,10 -10,0 0,-10z M140,330l10,0 0,10 -10,0 0,-10z M160,330l10,0 0,10 -10,0 0,-10z M170,330l10,0 0,10 -10,0 0,-10z M190,330l10,0 0,10 -10,0 0,-10z M210,330l10,0 0,10 -10,0 0,-10z M230,330l10,0 0,10 -10,0 0,-10z M250,330l10,0 0,10 -10,0 0,-10z M270,330l10,0 0,10 -10,0 0,-10z M290,330l10,0 0,10 -10,0 0,-10z M300,330l10,0 0,10 -10,0 0,-10z M320,330l10,0 0,10 -10,0 0,-10z M350,330l10,0 0,10 -10,0 0,-10z M360,330l10,0 0,10 -10,0 0,-10z M380,330l10,0 0,10 -10,0 0,-10z M390,330l10,0 0,10 -10,0 0,-10z M410,330l10,0 0,10 -10,0 0,-10z M420,330l10,0 0,10 -10,0 0,-10z M430,330l10,0 0,10 -10,0 0,-10z M440,330l10,0 0,10 -10,0 0,-10z M460,330l10,0 0,10 -10,0 0,-10z M480,330l10,0 0,10 -10,0 0,-10z M490,330l10,0 0,10 -10,0 0,-10z M40,340l10,0 0,10 -10,0 0,-10z M60,340l10,0 0,10 -10,0 0,-10z M80,340l10,0 0,10 -10,0 0,-10z M100,340l10,0 0,10 -10,0 0,-10z M110,340l10,0 0,10 -10,0 0,-10z M120,340l10,0 0,10 -10,0 0,-10z M160,340l10,0 0,10 -10,0 0,-10z M220,340l10,0 0,10 -10,0 0,-10z M230,340l10,0 0,10 -10,0 0,-10z M250,340l10,0 0,10 -10,0 0,-10z M260,340l10,0 0,10 -10,0 0,-10z M290,340l10,0 0,10 -10,0 0,-10z M310,340l10,0 0,10 -10,0 0,-10z M330,340l10,0 0,10 -10,0 0,-10z M340,340l10,0 0,10 -10,0 0,-10z M360,340l10,0 0,10 -10,0 0,-10z M420,340l10,0 0,10 -10,0 0,-10z M440,340l10,0 0,10 -10,0 0,-10z M480,340l10,0 0,10 -10,0 0,-10z M10,350l10,0 0,10 -10,0 0,-10z M40,350l10,0 0,10 -10,0 0,-10z M50,350l10,0 0,10 -10,0 0,-10z M60,350l10,0 0,10 -10,0 0,-10z M70,350l10,0 0,10 -10,0 0,-10z M140,350l10,0 0,10 -10,0 0,-10z M150,350l10,0 0,10 -10,0 0,-10z M170,350l10,0 0,10 -10,0 0,-10z M180,350l10,0 0,10 -10,0 0,-10z M190,350l10,0 0,10 -10,0 0,-10z M210,350l10,0 0,10 -10,0 0,-10z M240,350l10,0 0,10 -10,0 0,-10z M270,350l10,0 0,10 -10,0 0,-10z M280,350l10,0 0,10 -10,0 0,-10z M310,350l10,0 0,10 -10,0 0,-10z M330,350l10,0 0,10 -10,0 0,-10z M340,350l10,0 0,10 -10,0 0,-10z M350,350l10,0 0,10 -10,0 0,-10z M370,350l10,0 0,10 -10,0 0,-10z M380,350l10,0 0,10 -10,0 0,-10z M410,350l10,0 0,10 -10,0 0,-10z M420,350l10,0 0,10 -10,0 0,-10z M440,350l10,0 0,10 -10,0 0,-10z M450,350l10,0 0,10 -10,0 0,-10z M480,350l10,0 0,10 -10,0 0,-10z M40,360l10,0 0,10 -10,0 0,-10z M60,360l10,0 0,10 -10,0 0,-10z M80,360l10,0 0,10 -10,0 0,-10z M90,360l10,0 0,10 -10,0 0,-10z M100,360l10,0 0,10 -10,0 0,-10z M110,360l10,0 0,10 -10,0 0,-10z M130,360l10,0 0,10 -10,0 0,-10z M160,360l10,0 0,10 -10,0 0,-10z M170,360l10,0 0,10 -10,0 0,-10z M180,360l10,0 0,10 -10,0 0,-10z M190,360l10,0 0,10 -10,0 0,-10z M260,360l10,0 0,10 -10,0 0,-10z M270,360l10,0 0,10 -10,0 0,-10z M280,360l10,0 0,10 -10,0 0,-10z M330,360l10,0 0,10 -10,0 0,-10z M340,360l10,0 0,10 -10,0 0,-10z M350,360l10,0 0,10 -10,0 0,-10z M380,360l10,0 0,10 -10,0 0,-10z M400,360l10,0 0,10 -10,0 0,-10z M410,360l10,0 0,10 -10,0 0,-10z M430,360l10,0 0,10 -10,0 0,-10z M460,360l10,0 0,10 -10,0 0,-10z M470,360l10,0 0,10 -10,0 0,-10z M10,370l10,0 0,10 -10,0 0,-10z M50,370l10,0 0,10 -10,0 0,-10z M70,370l10,0 0,10 -10,0 0,-10z M100,370l10,0 0,10 -10,0 0,-10z M150,370l10,0 0,10 -10,0 0,-10z M160,370l10,0 0,10 -10,0 0,-10z M170,370l10,0 0,10 -10,0 0,-10z M180,370l10,0 0,10 -10,0 0,-10z M190,370l10,0 0,10 -10,0 0,-10z M210,370l10,0 0,10 -10,0 0,-10z M220,370l10,0 0,10 -10,0 0,-10z M230,370l10,0 0,10 -10,0 0,-10z M250,370l10,0 0,10 -10,0 0,-10z M260,370l10,0 0,10 -10,0 0,-10z M280,370l10,0 0,10 -10,0 0,-10z M360,370l10,0 0,10 -10,0 0,-10z M370,370l10,0 0,10 -10,0 0,-10z M380,370l10,0 0,10 -10,0 0,-10z M390,370l10,0 0,10 -10,0 0,-10z M400,370l10,0 0,10 -10,0 0,-10z M410,370l10,0 0,10 -10,0 0,-10z M430,370l10,0 0,10 -10,0 0,-10z M450,370l10,0 0,10 -10,0 0,-10z M470,370l10,0 0,10 -10,0 0,-10z M10,380l10,0 0,10 -10,0 0,-10z M30,380l10,0 0,10 -10,0 0,-10z M40,380l10,0 0,10 -10,0 0,-10z M50,380l10,0 0,10 -10,0 0,-10z M60,380l10,0 0,10 -10,0 0,-10z M90,380l10,0 0,10 -10,0 0,-10z M120,380l10,0 0,10 -10,0 0,-10z M130,380l10,0 0,10 -10,0 0,-10z M140,380l10,0 0,10 -10,0 0,-10z M160,380l10,0 0,10 -10,0 0,-10z M170,380l10,0 0,10 -10,0 0,-10z M180,380l10,0 0,10 -10,0 0,-10z M210,380l10,0 0,10 -10,0 0,-10z M230,380l10,0 0,10 -10,0 0,-10z M270,380l10,0 0,10 -10,0 0,-10z M280,380l10,0 0,10 -10,0 0,-10z M320,380l10,0 0,10 -10,0 0,-10z M330,380l10,0 0,10 -10,0 0,-10z M390,380l10,0 0,10 -10,0 0,-10z M410,380l10,0 0,10 -10,0 0,-10z M450,380l10,0 0,10 -10,0 0,-10z M460,380l10,0 0,10 -10,0 0,-10z M490,380l10,0 0,10 -10,0 0,-10z M20,390l10,0 0,10 -10,0 0,-10z M60,390l10,0 0,10 -10,0 0,-10z M70,390l10,0 0,10 -10,0 0,-10z M90,390l10,0 0,10 -10,0 0,-10z M160,390l10,0 0,10 -10,0 0,-10z M170,390l10,0 0,10 -10,0 0,-10z M200,390l10,0 0,10 -10,0 0,-10z M220,390l10,0 0,10 -10,0 0,-10z M240,390l10,0 0,10 -10,0 0,-10z M260,390l10,0 0,10 -10,0 0,-10z M280,390l10,0 0,10 -10,0 0,-10z M290,390l10,0 0,10 -10,0 0,-10z M300,390l10,0 0,10 -10,0 0,-10z M310,390l10,0 0,10 -10,0 0,-10z M360,390l10,0 0,10 -10,0 0,-10z M380,390l10,0 0,10 -10,0 0,-10z M390,390l10,0 0,10 -10,0 0,-10z M410,390l10,0 0,10 -10,0 0,-10z M470,390l10,0 0,10 -10,0 0,-10z M20,400l10,0 0,10 -10,0 0,-10z M30,400l10,0 0,10 -10,0 0,-10z M40,400l10,0 0,10 -10,0 0,-10z M90,400l10,0 0,10 -10,0 0,-10z M100,400l10,0 0,10 -10,0 0,-10z M110,400l10,0 0,10 -10,0 0,-10z M130,400l10,0 0,10 -10,0 0,-10z M140,400l10,0 0,10 -10,0 0,-10z M160,400l10,0 0,10 -10,0 0,-10z M170,400l10,0 0,10 -10,0 0,-10z M190,400l10,0 0,10 -10,0 0,-10z M210,400l10,0 0,10 -10,0 0,-10z M220,400l10,0 0,10 -10,0 0,-10z M240,400l10,0 0,10 -10,0 0,-10z M250,400l10,0 0,10 -10,0 0,-10z M260,400l10,0 0,10 -10,0 0,-10z M270,400l10,0 0,10 -10,0 0,-10z M280,400l10,0 0,10 -10,0 0,-10z M290,400l10,0 0,10 -10,0 0,-10z M300,400l10,0 0,10 -10,0 0,-10z M310,400l10,0 0,10 -10,0 0,-10z M330,400l10,0 0,10 -10,0 0,-10z M380,400l10,0 0,10 -10,0 0,-10z M410,400l10,0 0,10 -10,0 0,-10z M440,400l10,0 0,10 -10,0 0,-10z M450,400l10,0 0,10 -10,0 0,-10z M460,400l10,0 0,10 -10,0 0,-10z M490,400l10,0 0,10 -10,0 0,-10z M10,410l10,0 0,10 -10,0 0,-10z M20,410l10,0 0,10 -10,0 0,-10z M30,410l10,0 0,10 -10,0 0,-10z M70,410l10,0 0,10 -10,0 0,-10z M80,410l10,0 0,10 -10,0 0,-10z M110,410l10,0 0,10 -10,0 0,-10z M140,410l10,0 0,10 -10,0 0,-10z M150,410l10,0 0,10 -10,0 0,-10z M160,410l10,0 0,10 -10,0 0,-10z M170,410l10,0 0,10 -10,0 0,-10z M230,410l10,0 0,10 -10,0 0,-10z M240,410l10,0 0,10 -10,0 0,-10z M250,410l10,0 0,10 -10,0 0,-10z M260,410l10,0 0,10 -10,0 0,-10z M270,410l10,0 0,10 -10,0 0,-10z M300,410l10,0 0,10 -10,0 0,-10z M330,410l10,0 0,10 -10,0 0,-10z M360,410l10,0 0,10 -10,0 0,-10z M390,410l10,0 0,10 -10,0 0,-10z M410,410l10,0 0,10 -10,0 0,-10z M420,410l10,0 0,10 -10,0 0,-10z M430,410l10,0 0,10 -10,0 0,-10z M440,410l10,0 0,10 -10,0 0,-10z M450,410l10,0 0,10 -10,0 0,-10z M470,410l10,0 0,10 -10,0 0,-10z M90,420l10,0 0,10 -10,0 0,-10z M100,420l10,0 0,10 -10,0 0,-10z M130,420l10,0 0,10 -10,0 0,-10z M160,420l10,0 0,10 -10,0 0,-10z M220,420l10,0 0,10 -10,0 0,-10z M230,420l10,0 0,10 -10,0 0,-10z M270,420l10,0 0,10 -10,0 0,-10z M280,420l10,0 0,10 -10,0 0,-10z M290,420l10,0 0,10 -10,0 0,-10z M320,420l10,0 0,10 -10,0 0,-10z M350,420l10,0 0,10 -10,0 0,-10z M360,420l10,0 0,10 -10,0 0,-10z M380,420l10,0 0,10 -10,0 0,-10z M400,420l10,0 0,10 -10,0 0,-10z M410,420l10,0 0,10 -10,0 0,-10z M450,420l10,0 0,10 -10,0 0,-10z M460,420l10,0 0,10 -10,0 0,-10z M470,420l10,0 0,10 -10,0 0,-10z M480,420l10,0 0,10 -10,0 0,-10z M490,420l10,0 0,10 -10,0 0,-10z M10,430l10,0 0,10 -10,0 0,-10z M20,430l10,0 0,10 -10,0 0,-10z M30,430l10,0 0,10 -10,0 0,-10z M40,430l10,0 0,10 -10,0 0,-10z M50,430l10,0 0,10 -10,0 0,-10z M60,430l10,0 0,10 -10,0 0,-10z M70,430l10,0 0,10 -10,0 0,-10z M90,430l10,0 0,10 -10,0 0,-10z M120,430l10,0 0,10 -10,0 0,-10z M130,430l10,0 0,10 -10,0 0,-10z M140,430l10,0 0,10 -10,0 0,-10z M180,430l10,0 0,10 -10,0 0,-10z M220,430l10,0 0,10 -10,0 0,-10z M230,430l10,0 0,10 -10,0 0,-10z M250,430l10,0 0,10 -10,0 0,-10z M270,430l10,0 0,10 -10,0 0,-10z M280,430l10,0 0,10 -10,0 0,-10z M300,430l10,0 0,10 -10,0 0,-10z M350,430l10,0 0,10 -10,0 0,-10z M370,430l10,0 0,10 -10,0 0,-10z M380,430l10,0 0,10 -10,0 0,-10z M390,430l10,0 0,10 -10,0 0,-10z M410,430l10,0 0,10 -10,0 0,-10z M430,430l10,0 0,10 -10,0 0,-10z M450,430l10,0 0,10 -10,0 0,-10z M460,430l10,0 0,10 -10,0 0,-10z M480,430l10,0 0,10 -10,0 0,-10z M490,430l10,0 0,10 -10,0 0,-10z M10,440l10,0 0,10 -10,0 0,-10z M70,440l10,0 0,10 -10,0 0,-10z M90,440l10,0 0,10 -10,0 0,-10z M100,440l10,0 0,10 -10,0 0,-10z M140,440l10,0 0,10 -10,0 0,-10z M150,440l10,0 0,10 -10,0 0,-10z M160,440l10,0 0,10 -10,0 0,-10z M190,440l10,0 0,10 -10,0 0,-10z M200,440l10,0 0,10 -10,0 0,-10z M230,440l10,0 0,10 -10,0 0,-10z M270,440l10,0 0,10 -10,0 0,-10z M290,440l10,0 0,10 -10,0 0,-10z M300,440l10,0 0,10 -10,0 0,-10z M360,440l10,0 0,10 -10,0 0,-10z M370,440l10,0 0,10 -10,0 0,-10z M390,440l10,0 0,10 -10,0 0,-10z M400,440l10,0 0,10 -10,0 0,-10z M410,440l10,0 0,10 -10,0 0,-10z M450,440l10,0 0,10 -10,0 0,-10z M480,440l10,0 0,10 -10,0 0,-10z M490,440l10,0 0,10 -10,0 0,-10z M10,450l10,0 0,10 -10,0 0,-10z M30,450l10,0 0,10 -10,0 0,-10z M40,450l10,0 0,10 -10,0 0,-10z M50,450l10,0 0,10 -10,0 0,-10z M70,450l10,0 0,10 -10,0 0,-10z M100,450l10,0 0,10 -10,0 0,-10z M110,450l10,0 0,10 -10,0 0,-10z M120,450l10,0 0,10 -10,0 0,-10z M160,450l10,0 0,10 -10,0 0,-10z M190,450l10,0 0,10 -10,0 0,-10z M200,450l10,0 0,10 -10,0 0,-10z M230,450l10,0 0,10 -10,0 0,-10z M240,450l10,0 0,10 -10,0 0,-10z M250,450l10,0 0,10 -10,0 0,-10z M260,450l10,0 0,10 -10,0 0,-10z M270,450l10,0 0,10 -10,0 0,-10z M290,450l10,0 0,10 -10,0 0,-10z M300,450l10,0 0,10 -10,0 0,-10z M340,450l10,0 0,10 -10,0 0,-10z M350,450l10,0 0,10 -10,0 0,-10z M360,450l10,0 0,10 -10,0 0,-10z M380,450l10,0 0,10 -10,0 0,-10z M400,450l10,0 0,10 -10,0 0,-10z M410,450l10,0 0,10 -10,0 0,-10z M420,450l10,0 0,10 -10,0 0,-10z M430,450l10,0 0,10 -10,0 0,-10z M440,450l10,0 0,10 -10,0 0,-10z M450,450l10,0 0,10 -10,0 0,-10z M480,450l10,0 0,10 -10,0 0,-10z M490,450l10,0 0,10 -10,0 0,-10z M10,460l10,0 0,10 -10,0 0,-10z M30,460l10,0 0,10 -10,0 0,-10z M40,460l10,0 0,10 -10,0 0,-10z M50,460l10,0 0,10 -10,0 0,-10z M70,460l10,0 0,10 -10,0 0,-10z M90,460l10,0 0,10 -10,0 0,-10z M110,460l10,0 0,10 -10,0 0,-10z M130,460l10,0 0,10 -10,0 0,-10z M160,460l10,0 0,10 -10,0 0,-10z M170,460l10,0 0,10 -10,0 0,-10z M180,460l10,0 0,10 -10,0 0,-10z M190,460l10,0 0,10 -10,0 0,-10z M200,460l10,0 0,10 -10,0 0,-10z M210,460l10,0 0,10 -10,0 0,-10z M230,460l10,0 0,10 -10,0 0,-10z M310,460l10,0 0,10 -10,0 0,-10z M330,460l10,0 0,10 -10,0 0,-10z M340,460l10,0 0,10 -10,0 0,-10z M400,460l10,0 0,10 -10,0 0,-10z M420,460l10,0 0,10 -10,0 0,-10z M430,460l10,0 0,10 -10,0 0,-10z M440,460l10,0 0,10 -10,0 0,-10z M450,460l10,0 0,10 -10,0 0,-10z M460,460l10,0 0,10 -10,0 0,-10z M490,460l10,0 0,10 -10,0 0,-10z M10,470l10,0 0,10 -10,0 0,-10z M30,470l10,0 0,10 -10,0 0,-10z M40,470l10,0 0,10 -10,0 0,-10z M50,470l10,0 0,10 -10,0 0,-10z M70,470l10,0 0,10 -10,0 0,-10z M90,470l10,0 0,10 -10,0 0,-10z M100,470l10,0 0,10 -10,0 0,-10z M140,470l10,0 0,10 -10,0 0,-10z M170,470l10,0 0,10 -10,0 0,-10z M190,470l10,0 0,10 -10,0 0,-10z M220,470l10,0 0,10 -10,0 0,-10z M260,470l10,0 0,10 -10,0 0,-10z M270,470l10,0 0,10 -10,0 0,-10z M280,470l10,0 0,10 -10,0 0,-10z M300,470l10,0 0,10 -10,0 0,-10z M310,470l10,0 0,10 -10,0 0,-10z M320,470l10,0 0,10 -10,0 0,-10z M350,470l10,0 0,10 -10,0 0,-10z M370,470l10,0 0,10 -10,0 0,-10z M400,470l10,0 0,10 -10,0 0,-10z M440,470l10,0 0,10 -10,0 0,-10z M450,470l10,0 0,10 -10,0 0,-10z M480,470l10,0 0,10 -10,0 0,-10z M490,470l10,0 0,10 -10,0 0,-10z M10,480l10,0 0,10 -10,0 0,-10z M70,480l10,0 0,10 -10,0 0,-10z M130,480l10,0 0,10 -10,0 0,-10z M150,480l10,0 0,10 -10,0 0,-10z M170,480l10,0 0,10 -10,0 0,-10z M180,480l10,0 0,10 -10,0 0,-10z M210,480l10,0 0,10 -10,0 0,-10z M220,480l10,0 0,10 -10,0 0,-10z M230,480l10,0 0,10 -10,0 0,-10z M240,480l10,0 0,10 -10,0 0,-10z M250,480l10,0 0,10 -10,0 0,-10z M260,480l10,0 0,10 -10,0 0,-10z M280,480l10,0 0,10 -10,0 0,-10z M310,480l10,0 0,10 -10,0 0,-10z M330,480l10,0 0,10 -10,0 0,-10z M350,480l10,0 0,10 -10,0 0,-10z M370,480l10,0 0,10 -10,0 0,-10z M380,480l10,0 0,10 -10,0 0,-10z M390,480l10,0 0,10 -10,0 0,-10z M400,480l10,0 0,10 -10,0 0,-10z M410,480l10,0 0,10 -10,0 0,-10z M420,480l10,0 0,10 -10,0 0,-10z M440,480l10,0 0,10 -10,0 0,-10z M470,480l10,0 0,10 -10,0 0,-10z M10,490l10,0 0,10 -10,0 0,-10z M20,490l10,0 0,10 -10,0 0,-10z M30,490l10,0 0,10 -10,0 0,-10z M40,490l10,0 0,10 -10,0 0,-10z M50,490l10,0 0,10 -10,0 0,-10z M60,490l10,0 0,10 -10,0 0,-10z M70,490l10,0 0,10 -10,0 0,-10z M90,490l10,0 0,10 -10,0 0,-10z M100,490l10,0 0,10 -10,0 0,-10z M110,490l10,0 0,10 -10,0 0,-10z M120,490l10,0 0,10 -10,0 0,-10z M130,490l10,0 0,10 -10,0 0,-10z M140,490l10,0 0,10 -10,0 0,-10z M240,490l10,0 0,10 -10,0 0,-10z M260,490l10,0 0,10 -10,0 0,-10z M280,490l10,0 0,10 -10,0 0,-10z M300,490l10,0 0,10 -10,0 0,-10z M310,490l10,0 0,10 -10,0 0,-10z M340,490l10,0 0,10 -10,0 0,-10z M350,490l10,0 0,10 -10,0 0,-10z M370,490l10,0 0,10 -10,0 0,-10z M380,490l10,0 0,10 -10,0 0,-10z M430,490l10,0 0,10 -10,0 0,-10z M460,490l10,0 0,10 -10,0 0,-10z M470,490l10,0 0,10 -10,0 0,-10z M480,490l10,0 0,10 -10,0 0,-10z M490,490l10,0 0,10 -10,0 0,-10z " stroke="transparent" fill="rgb(0, 0, 0)"/></svg>