<!-- Generated by IcoMoon.io -->
<svg version="1.1" xmlns="http://www.w3.org/2000/svg" width="32" height="32" viewBox="0 0 32 32">
<title>Мій 2023</title>
<path d="M16 0c0.736 0 1.333 0.597 1.333 1.333v4c0 0.736-0.597 1.333-1.333 1.333s-1.333-0.597-1.333-1.333v-4c0-0.736 0.597-1.333 1.333-1.333z"></path>
<path d="M9.333 16c0-3.682 2.985-6.667 6.667-6.667s6.667 2.985 6.667 6.667c0 3.682-2.985 6.667-6.667 6.667s-6.667-2.985-6.667-6.667zM16 12c-2.209 0-4 1.791-4 4s1.791 4 4 4c2.209 0 4-1.791 4-4s-1.791-4-4-4z"></path>
<path d="M27.314 6.572c0.521-0.521 0.521-1.365 0-1.886s-1.365-0.521-1.886 0l-2.829 2.828c-0.521 0.521-0.521 1.365 0 1.886s1.365 0.521 1.886 0l2.828-2.828z"></path>
<path d="M32 16c0 0.736-0.597 1.333-1.333 1.333h-4c-0.736 0-1.333-0.597-1.333-1.333s0.597-1.333 1.333-1.333h4c0.736 0 1.333 0.597 1.333 1.333z"></path>
<path d="M25.428 27.314c0.521 0.521 1.365 0.521 1.886 0s0.521-1.365 0-1.886l-2.828-2.828c-0.521-0.521-1.365-0.521-1.886 0s-0.521 1.365 0 1.886l2.829 2.828z"></path>
<path d="M16 32c-0.736 0-1.333-0.597-1.333-1.333v-4c0-0.736 0.597-1.333 1.333-1.333s1.333 0.597 1.333 1.333v4c0 0.736-0.597 1.333-1.333 1.333z"></path>
<path d="M4.686 25.428c-0.521 0.521-0.521 1.365 0 1.886s1.365 0.521 1.886 0l2.828-2.828c0.521-0.521 0.521-1.365 0-1.886s-1.365-0.521-1.886 0l-2.828 2.829z"></path>
<path d="M0 16c0-0.736 0.597-1.333 1.333-1.333h4c0.736 0 1.333 0.597 1.333 1.333s-0.597 1.333-1.333 1.333h-4c-0.736 0-1.333-0.597-1.333-1.333z"></path>
<path d="M6.572 4.686c-0.521-0.521-1.365-0.521-1.886 0s-0.521 1.365 0 1.886l2.828 2.828c0.521 0.521 1.365 0.521 1.886 0s0.521-1.365 0-1.886l-2.828-2.828z"></path>
</svg>
