<!-- Generated by IcoMoon.io -->
<svg version="1.1" xmlns="http://www.w3.org/2000/svg" width="32" height="32" viewBox="0 0 32 32">
<title>Інструменти</title>
<path d="M9.064 3.846c3.36-1.345 7.348-0.659 10.073 2.066 2.533 2.533 3.304 6.157 2.32 9.354l5.859 4.958c2.239 1.895 2.381 5.299 0.307 7.373s-5.478 1.933-7.373-0.307l-4.958-5.859c-3.197 0.984-6.821 0.213-9.354-2.32-2.725-2.725-3.411-6.714-2.065-10.074 0.477-1.192 1.973-1.342 2.751-0.497l4.268 4.636 1.929-0.383 0.386-1.931-4.638-4.264c-0.847-0.778-0.696-2.275 0.496-2.752zM11.74 5.892l3.685 3.388c0.428 0.394 0.62 0.983 0.506 1.553l-0.626 3.138c-0.132 0.661-0.649 1.177-1.309 1.308l-3.134 0.623c-0.57 0.113-1.158-0.078-1.551-0.506l-3.392-3.684c-0.236 1.963 0.401 4.009 1.905 5.514 1.936 1.936 4.768 2.434 7.167 1.487 0.645-0.255 1.416-0.094 1.895 0.473l5.4 6.381c0.887 1.048 2.481 1.115 3.452 0.143s0.905-2.564-0.144-3.451l-6.381-5.4c-0.567-0.48-0.728-1.25-0.473-1.895 0.947-2.399 0.449-5.231-1.487-7.167-1.504-1.504-3.549-2.14-5.511-1.905z"></path>
</svg>
