<!-- Generated by IcoMoon.io -->
<svg version="1.1" xmlns="http://www.w3.org/2000/svg" width="1024" height="1024" viewBox="0 0 1024 1024">
<title>trash-svgrepo-com</title>
<g id="icomoon-ignore">
</g>
<path d="M832 256h-640c-17.664 0-32-14.304-32-32 0-17.664 14.336-32 32-32h640c17.664 0 32 14.336 32 32 0 17.696-14.336 32-32 32v0zM800 896c0 35.328-28.672 64-64 64h-448c-35.328 0-64-28.672-64-64v-576h576v576zM416 96c0-17.696 14.336-32 32-32h128c17.664 0 32 14.304 32 32v32h-192v-32zM864 128h-192v-64c0-35.328-28.672-64-64-64h-192c-35.328 0-64 28.672-64 64v64h-192c-35.328 0-64 28.672-64 64v64c0 35.328 28.672 64 64 64v576c0 70.688 57.312 128 128 128h448c70.688 0 128-57.312 128-128v-576c35.328 0 64-28.672 64-64v-64c0-35.328-28.672-64-64-64v0zM512 896c17.664 0 32-14.304 32-32v-384c0-17.664-14.336-32-32-32s-32 14.336-32 32v384c0 17.696 14.336 32 32 32v0zM352 896c17.664 0 32-14.304 32-32v-384c0-17.664-14.336-32-32-32s-32 14.336-32 32v384c0 17.696 14.336 32 32 32v0zM672 896c17.664 0 32-14.304 32-32v-384c0-17.664-14.336-32-32-32s-32 14.336-32 32v384c0 17.696 14.336 32 32 32v0z"></path>
</svg>
