<svg width="105" height="24" viewBox="0 0 105 24" fill="none" xmlns="http://www.w3.org/2000/svg">
<path d="M52.348 8.2795C51.5922 8.28306 50.8545 8.51041 50.2278 8.93286C49.6012 9.35531 49.1137 9.95393 48.827 10.6532C48.5402 11.3524 48.4671 12.1209 48.6167 12.8617C48.7663 13.6025 49.132 14.2823 49.6676 14.8155C50.2033 15.3486 50.8849 15.7111 51.6263 15.8573C52.3678 16.0034 53.136 15.9266 53.8339 15.6366C54.5317 15.3466 55.1281 14.8563 55.5476 14.2277C55.9671 13.5991 56.191 12.8602 56.191 12.1045C56.1983 11.5986 56.1038 11.0965 55.913 10.6279C55.7223 10.1593 55.4392 9.73395 55.0806 9.37705C54.722 9.02016 54.2953 8.73907 53.8258 8.55051C53.3564 8.36195 52.8538 8.26979 52.348 8.2795ZM52.348 14.4265C51.8832 14.459 51.4194 14.3509 51.0168 14.1163C50.6143 13.8818 50.2916 13.5315 50.0908 13.1111C49.8899 12.6907 49.8202 12.2196 49.8907 11.759C49.9611 11.2985 50.1685 10.8698 50.4858 10.5286C50.8032 10.1875 51.2158 9.94972 51.6701 9.8462C52.1243 9.74268 52.5992 9.77821 53.033 9.94818C53.4668 10.1181 53.8395 10.4147 54.1025 10.7992C54.3656 11.1838 54.5068 11.6386 54.508 12.1045C54.5225 12.3997 54.4777 12.6948 54.3763 12.9725C54.2749 13.2501 54.119 13.5046 53.9177 13.7211C53.7164 13.9375 53.4738 14.1114 53.2042 14.2325C52.9346 14.3537 52.6435 14.4196 52.348 14.4265ZM43.969 8.2795C43.2128 8.28128 42.4742 8.50712 41.8464 8.9285C41.2185 9.34988 40.7297 9.94788 40.4416 10.647C40.1534 11.346 40.079 12.1148 40.2276 12.8562C40.3762 13.5976 40.7412 14.2783 41.2765 14.8123C41.8118 15.3464 42.4933 15.7098 43.235 15.8567C43.9768 16.0035 44.7454 15.9272 45.4438 15.6375C46.1422 15.3477 46.7391 14.8574 47.159 14.2286C47.5789 13.5998 47.803 12.8606 47.803 12.1045C47.8103 11.5986 47.7158 11.0965 47.525 10.6279C47.3343 10.1593 47.0512 9.73395 46.6926 9.37705C46.334 9.02016 45.9073 8.73907 45.4378 8.55051C44.9684 8.36195 44.4658 8.26979 43.96 8.2795H43.969ZM43.969 14.4265C43.504 14.4608 43.0394 14.3544 42.6357 14.121C42.2321 13.8876 41.908 13.5381 41.7058 13.118C41.5035 12.6979 41.4325 12.2266 41.5018 11.7655C41.5711 11.3044 41.7777 10.8749 42.0945 10.5328C42.4114 10.1908 42.8239 9.95203 43.2784 9.84769C43.7328 9.74335 44.2081 9.77824 44.6425 9.94782C45.0768 10.1174 45.45 10.4138 45.7136 10.7985C45.9771 11.1831 46.1187 11.6382 46.12 12.1045C46.1345 12.3997 46.0897 12.6948 45.9883 12.9725C45.8869 13.2501 45.731 13.5046 45.5297 13.7211C45.3284 13.9375 45.0858 14.1114 44.8162 14.2325C44.5466 14.3537 44.2555 14.4196 43.96 14.4265H43.969ZM33.988 9.4585V11.0785H37.876C37.815 11.8415 37.4978 12.5615 36.976 13.1215C36.587 13.5177 36.1194 13.8281 35.6032 14.0327C35.087 14.2373 34.5338 14.3316 33.979 14.3095C32.8332 14.3095 31.7344 13.8544 30.9243 13.0442C30.1141 12.234 29.659 11.1352 29.659 9.9895C29.659 8.84377 30.1141 7.74496 30.9243 6.9348C31.7344 6.12464 32.8332 5.6695 33.979 5.6695C35.075 5.65163 36.1334 6.06915 36.922 6.8305L38.065 5.6875C37.5326 5.14842 36.8974 4.72169 36.1971 4.4326C35.4968 4.14351 34.7456 3.99793 33.988 4.0045C33.1879 3.97336 32.3897 4.10406 31.6413 4.38877C30.8929 4.67348 30.2097 5.10634 29.6326 5.66141C29.0556 6.21648 28.5965 6.88233 28.2829 7.61908C27.9693 8.35582 27.8076 9.14829 27.8076 9.949C27.8076 10.7497 27.9693 11.5422 28.2829 12.2789C28.5965 13.0157 29.0556 13.6815 29.6326 14.2366C30.2097 14.7917 30.8929 15.2245 31.6413 15.5092C32.3897 15.7939 33.1879 15.9246 33.988 15.8935C34.7583 15.9283 35.5272 15.7977 36.2429 15.5105C36.9585 15.2233 37.6044 14.7862 38.137 14.2285C39.0799 13.1925 39.5833 11.8307 39.541 10.4305C39.5439 10.0894 39.5137 9.7488 39.451 9.4135L33.988 9.4585ZM74.767 10.7185C74.5323 10.028 74.0933 9.42501 73.5083 8.98946C72.9233 8.55392 72.2198 8.30634 71.491 8.2795C70.9987 8.27854 70.5114 8.37856 70.0593 8.57338C69.6072 8.7682 69.1998 9.05368 68.8624 9.41218C68.525 9.77068 68.2647 10.1946 68.0976 10.6576C67.9305 11.1207 67.8602 11.6132 67.891 12.1045C67.88 12.6075 67.9706 13.1076 68.1572 13.5748C68.3439 14.0421 68.6228 14.4669 68.9773 14.8239C69.3318 15.1809 69.7547 15.4629 70.2206 15.6528C70.6865 15.8428 71.1859 15.9369 71.689 15.9295C72.3185 15.9329 72.9391 15.7801 73.4951 15.4848C74.0511 15.1895 74.5252 14.761 74.875 14.2375L73.57 13.3375C73.3752 13.6622 73.0994 13.9308 72.7697 14.1169C72.44 14.3031 72.0676 14.4005 71.689 14.3995C71.2991 14.4144 70.9138 14.3116 70.5832 14.1045C70.2525 13.8975 69.9918 13.5957 69.835 13.2385L74.956 11.1235L74.767 10.7185ZM69.547 11.9965C69.5287 11.7181 69.5662 11.4389 69.6572 11.1752C69.7482 10.9115 69.891 10.6686 70.077 10.4607C70.2631 10.2529 70.4888 10.0842 70.7408 9.96468C70.9929 9.84513 71.2663 9.77707 71.545 9.7645C71.8353 9.74537 72.1248 9.81194 72.3776 9.95594C72.6304 10.0999 72.8354 10.315 72.967 10.5745L69.547 11.9965ZM65.389 15.7045H67.072V4.4545H65.389V15.7045ZM62.635 9.1345H62.572C62.3183 8.85091 62.0076 8.62413 61.6602 8.46903C61.3127 8.31392 60.9364 8.234 60.556 8.2345C59.5724 8.2822 58.645 8.70648 57.9657 9.41942C57.2865 10.1324 56.9077 11.0793 56.9077 12.064C56.9077 13.0487 57.2865 13.9956 57.9657 14.7086C58.645 15.4215 59.5724 15.8458 60.556 15.8935C60.9374 15.8999 61.3155 15.8227 61.6638 15.6672C62.0121 15.5117 62.3221 15.2817 62.572 14.9935H62.626V15.5425C62.626 17.0095 61.843 17.7925 60.583 17.7925C60.1633 17.7827 59.7561 17.6482 59.4131 17.4062C59.0701 17.1642 58.8069 16.8256 58.657 16.4335L57.19 17.0455C57.4661 17.7172 57.9366 18.2911 58.5412 18.6936C59.1457 19.0961 59.8567 19.3088 60.583 19.3045C62.554 19.3045 64.183 18.1435 64.183 15.3175V8.5045H62.635V9.1345ZM60.709 14.4265C60.1284 14.3753 59.5881 14.1086 59.1945 13.6788C58.8009 13.2489 58.5826 12.6873 58.5826 12.1045C58.5826 11.5217 58.8009 10.9601 59.1945 10.5302C59.5881 10.1004 60.1284 9.83366 60.709 9.7825C60.9968 9.79727 61.2788 9.8695 61.5383 9.99493C61.7978 10.1204 62.0295 10.2965 62.2199 10.5128C62.4103 10.7292 62.5555 10.9815 62.6468 11.2549C62.7382 11.5282 62.774 11.8171 62.752 12.1045C62.7765 12.3931 62.7423 12.6837 62.6513 12.9587C62.5603 13.2338 62.4146 13.4875 62.2227 13.7045C62.0309 13.9216 61.7971 14.0975 61.5353 14.2216C61.2736 14.3457 60.9894 14.4154 60.7 14.4265H60.709ZM82.651 4.4545H78.628V15.7045H80.311V11.4385H82.66C83.1396 11.473 83.6212 11.4082 84.0748 11.2484C84.5283 11.0885 84.9441 10.8369 85.2961 10.5092C85.6481 10.1816 85.9288 9.78497 86.1208 9.34405C86.3128 8.90313 86.4118 8.42739 86.4118 7.9465C86.4118 7.46561 86.3128 6.98987 86.1208 6.54895C85.9288 6.10803 85.6481 5.71139 85.2961 5.38376C84.9441 5.05612 84.5283 4.80452 84.0748 4.64465C83.6212 4.48477 83.1396 4.42004 82.66 4.4545H82.651ZM82.651 9.8545H80.302V6.0205H82.687C83.199 6.0205 83.69 6.22389 84.052 6.58593C84.4141 6.94797 84.6175 7.439 84.6175 7.951C84.6175 8.463 84.4141 8.95403 84.052 9.31607C83.69 9.67811 83.199 9.8815 82.687 9.8815L82.651 9.8545ZM93.028 8.2345C92.4153 8.19788 91.8052 8.34106 91.2728 8.64645C90.7403 8.95184 90.3087 9.40614 90.031 9.9535L91.525 10.5745C91.6723 10.303 91.8953 10.0802 92.167 9.9332C92.4386 9.7862 92.7471 9.72133 93.055 9.7465C93.2686 9.72155 93.4851 9.73939 93.6918 9.79899C93.8985 9.85859 94.0912 9.95876 94.2587 10.0936C94.4263 10.2285 94.5653 10.3954 94.6677 10.5846C94.7701 10.7738 94.8337 10.9815 94.855 11.1955V11.3125C94.3144 11.0263 93.7116 10.8779 93.1 10.8805C91.489 10.8805 89.86 11.7805 89.86 13.4095C89.8759 13.7568 89.9612 14.0975 90.1111 14.4112C90.2609 14.725 90.4721 15.0056 90.7322 15.2363C90.9923 15.4671 91.296 15.6433 91.6254 15.7546C91.9548 15.866 92.3032 15.9101 92.65 15.8845C93.0738 15.9149 93.498 15.8307 93.8781 15.6407C94.2581 15.4507 94.58 15.1618 94.81 14.8045H94.864V15.7045H96.484V11.3755C96.484 9.4045 94.99 8.2615 93.073 8.2615L93.028 8.2345ZM92.821 14.3995C92.272 14.3995 91.507 14.1205 91.507 13.4455C91.507 12.5455 92.461 12.2485 93.307 12.2485C93.8416 12.2353 94.37 12.3659 94.837 12.6265C94.7807 13.1138 94.5502 13.5643 94.188 13.895C93.8258 14.2258 93.3563 14.4145 92.866 14.4265L92.821 14.3995ZM102.388 8.5045L100.462 13.3825H100.408L98.41 8.5045H96.61L99.607 15.3265L97.897 19.1155H99.652L104.26 8.5045H102.388ZM87.259 15.7045H88.942V4.4545H87.259V15.7045Z" fill="white"/>
<path fill-rule="evenodd" clip-rule="evenodd" d="M0.408203 0.365195L0.413449 0.360606L0.417968 0.365125L0.413052 0.37004L0.408203 0.365195ZM0.00322397 1.62513C-0.020937 1.22183 0.0913159 0.823805 0.319293 0.494002L11.3818 11.5565V11.6106L0.319297 22.6643C0.0913173 22.3344 -0.0209372 21.9364 0.00322397 21.5331V1.62513ZM11.6312 12.0683L0.701586 22.9891C0.898469 23.0929 1.11777 23.1512 1.34325 23.1577C1.68506 23.1675 2.01958 23.0577 2.28899 22.8471L15.1042 15.5667L11.6312 12.0683ZM15.4211 15.3867L15.438 15.3771H15.4366L19.8218 12.8841C21.0818 12.1641 21.0818 10.9941 19.8218 10.2831L15.4255 7.78492L15.4292 7.78119L15.4053 7.76762L15.3902 7.79477L15.4995 7.90297L11.882 11.5558V11.6112L15.4993 15.2549L15.4041 15.3493L15.4211 15.3867ZM11.631 11.0986L15.101 7.59475L2.2802 0.311194C2.01079 0.100606 1.67627 -0.0092495 1.33447 0.000610382C1.11119 0.00705104 0.893965 0.0643099 0.698573 0.166175L11.631 11.0986ZM0.417109 22.793L0.413315 22.7884L0.417994 22.7931L0.417525 22.7936L0.416992 22.7931L0.417109 22.793Z" fill="white"/>
</svg>
